<?xml version="1.0" encoding="utf-8"?>
<!-- Generator: Adobe Illustrator 16.2.1, SVG Export Plug-In . SVG Version: 6.00 Build 0)  -->
<!DOCTYPE svg PUBLIC "-//W3C//DTD SVG 1.1//EN" "http://www.w3.org/Graphics/SVG/1.1/DTD/svg11.dtd">
<svg version="1.1" id="Layer_1" xmlns="http://www.w3.org/2000/svg" xmlns:xlink="http://www.w3.org/1999/xlink" x="0px" y="0px"
	 width="36px" height="36px" viewBox="0 0 36 36" enable-background="new 0 0 36 36" xml:space="preserve">
<rect fill="#3B5998" width="36" height="36"/>
<polygon fill="#304A80" points="35.953,20.391 21.997,10.146 16.52,13.754 16.065,14.033 16.071,26.502 28.671,35.998 36,36 "/>
<path fill="#FFFFFF" d="M22.062,15.431h-2.591v-1.699c0-0.638,0.422-0.788,0.721-0.788c0.297,0,1.828,0,1.828,0v-2.805l-2.519-0.01
	c-2.795,0-3.431,2.092-3.431,3.432v1.87h-1.617v2.891h1.617c0,3.711,0,8.181,0,8.181h3.401c0,0,0-4.515,0-8.181h2.294L22.062,15.431
	z"/>
</svg>
