<?xml version="1.0" encoding="utf-8"?>
<!-- Generator: Adobe Illustrator 16.2.1, SVG Export Plug-In . SVG Version: 6.00 Build 0)  -->
<!DOCTYPE svg PUBLIC "-//W3C//DTD SVG 1.1//EN" "http://www.w3.org/Graphics/SVG/1.1/DTD/svg11.dtd">
<svg version="1.1" id="Layer_1" xmlns="http://www.w3.org/2000/svg" xmlns:xlink="http://www.w3.org/1999/xlink" x="0px" y="0px"
	 width="36px" height="36px" viewBox="0 0 36 36" enable-background="new 0 0 36 36" xml:space="preserve">
<rect fill="#DB4A39" width="36" height="36"/>
<polygon fill="#C04030" points="36,23.792 24.738,11.207 17.5,9.708 11,13.25 11.386,22.043 23.562,36 36,36 "/>
<path fill="#FFFFFF" d="M24.811,20.411v3.258h-0.002l0.002,0.296c-3.16,1.595-8.407,2.05-11.433,0.009
	c-1.833-1.236-3.64-3.694-3.541-6.803c0.094-2.953,2.009-5.597,4.642-6.928c3.027-1.532,7.596-1.242,10.26,0.963l-1.57,1.6
	l-1.016,0.289l0.541-0.983c-0.777-0.781-1.67-1.347-2.65-1.66c-1.566-0.502-3.01-0.225-4.214,0.364
	c-2.465,1.208-3.923,4.132-3.357,7.225c0.597,3.258,3.118,5.872,6.425,6.146c0.975,0.083,2.041,0.034,2.984-0.215
	c0.672-0.217,0.668-0.282,0.668-0.689v-2.871l-3.312,0.099l1.705-0.96h4.604L24.811,20.411z"/>
</svg>
