<?xml version="1.0" encoding="utf-8"?>
<!-- Generator: Adobe Illustrator 16.2.1, SVG Export Plug-In . SVG Version: 6.00 Build 0)  -->
<!DOCTYPE svg PUBLIC "-//W3C//DTD SVG 1.1//EN" "http://www.w3.org/Graphics/SVG/1.1/DTD/svg11.dtd">
<svg version="1.1" id="Layer_1" xmlns="http://www.w3.org/2000/svg" xmlns:xlink="http://www.w3.org/1999/xlink" x="0px" y="0px"
	 width="36px" height="36px" viewBox="0 0 36 36" enable-background="new 0 0 36 36" xml:space="preserve">
<rect fill="#00A0D1" width="36" height="36"/>
<polygon fill="#0992BE" points="36,20.812 27.917,14.46 17.375,19.562 17.126,15.929 16.438,21.375 11.143,23.59 8.107,21.262 
	23.562,36 36,36 "/>
<path fill="#FFFFFF" d="M23.667,11.972c-0.013-0.005-0.027-0.018-0.041-0.029c-0.825-0.608-1.747-0.851-2.771-0.718l-0.039-0.067
	c0.007-0.007,0.013-0.007,0.02-0.008c0.912-0.29,1.445-0.549,1.59-0.792c0.038-0.189-0.038-0.285-0.245-0.291
	c-0.463,0.1-0.887,0.234-1.259,0.416c0.46-0.342,0.632-0.569,0.514-0.667c-0.481,0.056-0.979,0.339-1.481,0.852
	c0.172-0.348,0.231-0.533,0.178-0.56c-0.244,0.195-0.456,0.4-0.634,0.614c-0.372,0.476-0.666,0.912-0.886,1.304l-0.009,0.032
	c-0.561,1.068-0.925,2.125-1.103,3.184l-0.094,0.084l-0.018,0.02c-0.437-0.432-0.941-0.783-1.535-1.049
	c-0.704-0.351-1.52-0.673-2.455-0.97c-1.027-0.392-2.061-0.701-3.097-0.919c0.092,1.073,0.722,1.878,1.877,2.399l0.002,0.018
	c-0.389,0.029-0.757,0.121-1.109,0.262c0.162,0.989,0.966,1.606,2.409,1.857l-0.005,0.02c-0.554,0.02-0.994,0.246-1.314,0.658
	c0.542,0.821,1.398,1.157,2.581,1.017c-0.225,0.137-0.396,0.279-0.504,0.43c-0.196,0.236-0.243,0.496-0.146,0.78
	c0.293,0.416,0.769,0.575,1.438,0.484l0,0l0.042,0.039c-0.006,0.007-0.012,0.014-0.018,0.021c-1.056,1.249-2.41,1.891-4.062,1.934
	l-0.024,0.015c-1.002,0.083-2.116-0.271-3.36-1.08c1.313,1.491,2.966,2.504,4.947,3.051c2.257,0.49,4.458,0.342,6.59-0.449
	l0.039-0.003c2.071-0.78,3.762-2.142,5.08-4.091c0.598-1.014,0.946-1.96,1.039-2.846c1.112-0.064,1.883-0.441,2.319-1.132
	l-0.015-0.019c-0.356,0.16-1.084,0.189-2.174,0.079l-0.011-0.115c0-0.006,0-0.006,0.006,0c1.162-0.234,1.821-0.659,1.988-1.276
	c-0.792,0.38-1.596,0.458-2.42,0.248C25.254,13.668,24.646,12.757,23.667,11.972z"/>
</svg>
