<?xml version="1.0" encoding="utf-8"?>
<!-- Generator: Adobe Illustrator 16.2.1, SVG Export Plug-In . SVG Version: 6.00 Build 0)  -->
<!DOCTYPE svg PUBLIC "-//W3C//DTD SVG 1.1//EN" "http://www.w3.org/Graphics/SVG/1.1/DTD/svg11.dtd">
<svg version="1.1" id="Layer_1" xmlns="http://www.w3.org/2000/svg" xmlns:xlink="http://www.w3.org/1999/xlink" x="0px" y="0px"
	 width="50px" height="50px" viewBox="0 0 50 50" enable-background="new 0 0 50 50" xml:space="preserve">
<circle fill="none" stroke="#FFFFFF" stroke-width="4" stroke-miterlimit="10" cx="25.296" cy="24.553" r="22.212"/>
<g>
	<path fill="#FFFFFF" d="M18.259,20.08c4.061,4.06,8.116,8.12,12.176,12.179c1.225,1.225,3.122-0.671,1.898-1.897
		c-4.06-4.057-8.119-8.119-12.178-12.179C18.931,16.958,17.035,18.854,18.259,20.08L18.259,20.08z"/>
	<path fill="#FFFFFF" d="M30.435,18.183c-4.06,4.06-8.118,8.118-12.176,12.179c-1.224,1.224,0.672,3.122,1.896,1.897
		c4.059-4.06,8.121-8.119,12.178-12.179C33.557,18.854,31.659,16.958,30.435,18.183L30.435,18.183z"/>
</g>
</svg>
