<?xml version="1.0" encoding="utf-8"?>
<!-- Generator: Adobe Illustrator 16.2.1, SVG Export Plug-In . SVG Version: 6.00 Build 0)  -->
<!DOCTYPE svg PUBLIC "-//W3C//DTD SVG 1.1//EN" "http://www.w3.org/Graphics/SVG/1.1/DTD/svg11.dtd">
<svg version="1.1" id="Layer_1" xmlns="http://www.w3.org/2000/svg" xmlns:xlink="http://www.w3.org/1999/xlink" x="0px" y="0px"
	 width="50px" height="50px" viewBox="0 0 50 50" enable-background="new 0 0 50 50" xml:space="preserve">
<circle fill="none" stroke="#FFFFFF" stroke-width="4" stroke-miterlimit="10" cx="25.296" cy="24.553" r="22.212"/>
<g id="Your_Icon">
	<g>
		<path fill="#FFFFFF" d="M33.93,26.678c-0.673,0-1.219,0.546-1.219,1.219v1.635c0,1.605-1.106,1.942-2.035,1.942h-9.419
			c-1.318,0-2.105-0.833-2.105-2.227v-7.22c0-2.083,1.371-2.521,2.521-2.521h2.107c0.673,0,1.22-0.546,1.22-1.219
			c0-0.673-0.546-1.219-1.22-1.219h-2.107c-3.012,0-4.959,1.947-4.959,4.959v7.22c0,2.746,1.869,4.664,4.544,4.664h9.418
			c2.676,0,4.475-1.76,4.475-4.38v-1.635C35.149,27.224,34.603,26.678,33.93,26.678z"/>
		<path fill="#FFFFFF" d="M33.93,17.068h-5.54c-0.673,0-1.219,0.546-1.219,1.219c0,0.673,0.546,1.219,1.219,1.219h2.529
			c-2.625,2.626-2.965,2.966-6.846,6.776c-0.481,0.471-0.488,1.242-0.016,1.723c0.239,0.243,0.554,0.366,0.869,0.366
			c0.309,0,0.618-0.117,0.854-0.35c3.892-3.819,4.23-4.159,6.865-6.795l0.065-0.065v2.251c0,0.673,0.547,1.219,1.22,1.219
			c0.672,0,1.219-0.545,1.219-1.219v-5.125C35.149,17.614,34.603,17.068,33.93,17.068z"/>
	</g>
</g>
</svg>
