<?xml version="1.0" encoding="utf-8"?>
<!-- Generator: Adobe Illustrator 16.0.0, SVG Export Plug-In . SVG Version: 6.00 Build 0)  -->
<!DOCTYPE svg PUBLIC "-//W3C//DTD SVG 1.1//EN" "http://www.w3.org/Graphics/SVG/1.1/DTD/svg11.dtd">
<svg version="1.1" id="Layer_1" xmlns="http://www.w3.org/2000/svg" xmlns:xlink="http://www.w3.org/1999/xlink" x="0px" y="0px"
	 width="32px" height="32px" viewBox="0 0 32 32" enable-background="new 0 0 32 32" xml:space="preserve">
<path fill="#FFFFFF" d="M19.55,20.815c-0.167-0.096-0.024-1.256-0.024-1.256l-1.254-0.141c0-0.072-0.071-1.113-0.071-1.113
	c0.995-0.332,1.199-2.291,1.199-2.291c0.632,0.348,1.042-1.2,1.042-1.2c0.748-2.151-0.371-2.022-0.371-2.022
	c0.355-1.61,0.185-3.987,0.185-3.987c-0.497-4.358-6.476-3.562-7.437-2.095c-2.67,0.46-1.418,4.869-1.418,4.869l0.356,1.325
	c-0.932,0.6-0.285,1.327-0.253,2.164c0.046,1.234,0.806,0.978,0.806,0.978c0.047,2.039,1.365,2.307,1.365,2.307
	c0.189,1.279,0,1.168,0,1.168h-1.136c0.04,0.324-0.071,1.176-0.071,1.176c-1.06,0.467-1.286,0.436-2.337,0.893
	c-2.032,0.885-2.869,1.389-2.869,1.389c-0.08,0.035-0.154,0.072-0.227,0.113c1.833,2.314,4.541,3.902,7.626,4.262h2.682
	c3.118-0.363,5.851-1.98,7.685-4.336c-0.622-0.539-1.616-1.037-3.013-1.395C20.673,21.278,19.55,20.815,19.55,20.815z"/>
<path fill="#FFFFFF" d="M16,0.667C7.532,0.667,0.667,7.532,0.667,16c0,8.467,6.865,15.333,15.333,15.333
	c8.468,0,15.333-6.865,15.333-15.333C31.333,7.532,24.468,0.667,16,0.667z M16,28.88C8.887,28.88,3.12,23.114,3.12,16
	c0-7.113,5.767-12.88,12.88-12.88S28.88,8.887,28.88,16C28.88,23.114,23.113,28.88,16,28.88z"/>
</svg>
