<?xml version="1.0" encoding="utf-8"?>
<!-- Generator: Adobe Illustrator 16.2.1, SVG Export Plug-In . SVG Version: 6.00 Build 0)  -->
<!DOCTYPE svg PUBLIC "-//W3C//DTD SVG 1.1//EN" "http://www.w3.org/Graphics/SVG/1.1/DTD/svg11.dtd">
<svg version="1.1" id="Your_Icon" xmlns="http://www.w3.org/2000/svg" xmlns:xlink="http://www.w3.org/1999/xlink" x="0px" y="0px"
	 width="100px" height="100px" viewBox="0 0 100 100" enable-background="new 0 0 100 100" xml:space="preserve">
<path fill="#FFFFFF" d="M97.941,26.338c-0.795-7.177-5.912-12.648-13.118-13.118c-31.149-2.035-38.497-2.035-69.647,0
	C7.97,13.69,2.853,19.159,2.058,26.338c-2.418,21.825-2.417,25.499,0,47.324c0.795,7.179,5.915,12.648,13.118,13.117
	c31.151,2.035,38.498,2.035,69.647,0c7.204-0.469,12.323-5.94,13.118-13.117C100.359,51.837,100.359,48.163,97.941,26.338z
	 M64.609,51.886L37.664,68.123c-0.699,0.421-1.672,0.432-2.382,0.029C34.572,67.753,34,67.052,34,66.236V33.763
	c0-0.815,0.572-1.516,1.282-1.917c0.71-0.401,1.602-0.39,2.301,0.031l26.985,16.237c0.68,0.41,1.086,1.092,1.086,1.886
	S65.289,51.477,64.609,51.886z"/>
</svg>
