<?xml version="1.0" encoding="utf-8"?>
<!-- Generator: Adobe Illustrator 16.0.0, SVG Export Plug-In . SVG Version: 6.00 Build 0)  -->
<!DOCTYPE svg PUBLIC "-//W3C//DTD SVG 1.1//EN" "http://www.w3.org/Graphics/SVG/1.1/DTD/svg11.dtd">
<svg version="1.1" id="Layer_1" xmlns="http://www.w3.org/2000/svg" xmlns:xlink="http://www.w3.org/1999/xlink" x="0px" y="0px"
	 width="396px" height="81px" viewBox="0 0 396 81" enable-background="new 0 0 396 81" xml:space="preserve">
<path fill="#FFFFFF" d="M72.686,16.866h12.237v23.253c0,4.526,0.312,7.67,0.933,9.43c0.621,1.76,1.62,3.127,2.996,4.104
	c1.376,0.975,3.069,1.465,5.08,1.465c2.013,0,3.721-0.482,5.127-1.443c1.404-0.961,2.448-2.373,3.129-4.236
	c0.501-1.391,0.753-4.363,0.753-8.917V16.866h12.114v20.452c0,8.428-0.665,14.194-1.996,17.297
	c-1.625,3.787-4.017,6.691-7.179,8.717c-3.161,2.025-7.178,3.037-12.055,3.037c-5.29,0-9.565-1.182-12.832-3.549
	c-3.265-2.363-5.56-5.66-6.89-9.893c-0.945-2.924-1.418-8.246-1.418-15.965V16.866z"/>
<path fill="#FFFFFF" d="M158.855,14.9h12.116v48.274h-12.116v-5.1c-2.361,2.242-4.73,3.859-7.108,4.848
	c-2.375,0.984-4.953,1.48-7.727,1.48c-6.229,0-11.617-2.416-16.163-7.248c-4.546-4.836-6.82-10.846-6.82-18.033
	c0-7.446,2.2-13.551,6.597-18.313c4.401-4.759,9.744-7.141,16.031-7.141c2.895,0,5.612,0.55,8.15,1.646
	c2.539,1.092,4.887,2.733,7.041,4.924V14.9z M146.14,24.861c-3.748,0-6.857,1.324-9.335,3.97c-2.476,2.646-3.715,6.037-3.715,10.178
	c0,4.169,1.26,7.597,3.782,10.289c2.522,2.691,5.625,4.035,9.312,4.035c3.805,0,6.959-1.322,9.465-3.967
	c2.506-2.646,3.76-6.115,3.76-10.399c0-4.202-1.254-7.601-3.76-10.2C153.142,26.164,149.972,24.861,146.14,24.861z"/>
<path fill="#FFFFFF" d="M175.892,14.9h12.382l12.502,30.225L214.587,14.9h12.434l-30.202,65.92h-12.502l9.909-21.277L175.892,14.9z"
	/>
<path fill="#FFFFFF" d="M262.205,34.874h-22.978v26.88h-4.631V0.18h28.608c14.954,0,22.432,5.872,22.432,17.619
	c0,5.933-2.544,10.383-7.629,13.35C273.83,33.632,268.563,34.874,262.205,34.874z M263.75,4.449h-24.522v26.155h24.614
	c4.662,0,8.566-1.03,11.715-3.086c3.572-2.303,5.356-5.541,5.356-9.719C280.913,8.902,275.192,4.449,263.75,4.449z"/>
<path fill="#FFFFFF" d="M329.229,61.85v-7.996c-4.056,5.938-10.201,8.9-18.438,8.9c-7.021,0-12.562-2.238-16.619-6.719
	c-3.813-4.24-5.722-9.689-5.722-16.347c0-6.842,1.937-12.381,5.815-16.619c4.054-4.483,9.684-6.723,16.891-6.723
	c8.114,0,14.136,2.875,18.072,8.628v-8.447h4.634V61.85H329.229z M324.598,25.882c-3.271-3.511-7.901-5.267-13.895-5.267
	c-5.572,0-9.991,1.875-13.259,5.631c-2.967,3.514-4.45,7.991-4.45,13.441c0,5.511,1.483,9.96,4.45,13.349
	c3.148,3.633,7.567,5.451,13.259,5.451c5.631,0,10.125-1.787,13.487-5.359c3.358-3.572,5.039-8.055,5.039-13.441
	C329.229,33.874,327.687,29.274,324.598,25.882z"/>
<path fill="#FFFFFF" d="M360.287,78.012c-5.389,0-9.808-1.061-13.26-3.178c-4.237-2.545-6.507-6.811-6.811-12.805h4.632
	c0.667,7.809,5.872,11.717,15.622,11.717c11.261,0,16.893-4.723,16.893-14.17v-3.357c-3.573,4.779-8.991,7.172-16.257,7.172
	c-5.692,0-10.202-1.393-13.533-4.178c-3.512-2.965-5.268-7.143-5.268-12.531V17.438h4.633V46.59c0,8.355,4.723,12.533,14.168,12.533
	c5.45,0,9.565-1.605,12.354-4.812c2.601-3.029,3.903-7.207,3.903-12.533V17.438h4.632v42.23
	C381.995,71.898,374.758,78.012,360.287,78.012z"/>
<g>
	<path fill-rule="evenodd" clip-rule="evenodd" fill="#FFFFFF" d="M17.132,6.474C10.138,10.447,4.611,17.095,2.073,24.753
		c-2.543,7.674-2.262,16.191,0.595,23.723c2.719,7.172,8.464,13.861,15.327,17.357c3.633,1.854,7.427,3.08,11.482,3.578
		c1.973,0.242,3.982,0.342,5.967,0.248c1.942-0.096,3.806-0.512,5.727-0.709c1.656-0.172,3.505-0.857,5.046-1.479
		c0.882-0.357,1.757-0.764,2.618-1.168c0.332-0.158,0.653-0.33,0.991-0.482c0.104-0.047,0.232,0.225,0.287,0.303
		c2.848,3.932,5.693,7.863,8.541,11.793c0.973,1.342,2.509,1.613,3.91,0.607c1.898-1.363,3.797-2.727,5.696-4.092
		c1.214-0.875,3.27-1.848,3.711-3.4c0.194-0.682-0.324-1.443-0.713-1.957c-0.773-1.021-1.549-2.043-2.323-3.064
		c-0.752-0.998-1.555-2.506-2.6-3.248c-1.388-0.994-2.474,0.137-3.574,0.994c-5.147-6.904-10.493-13.699-15.767-20.541
		c-0.387-0.504,0.102-1.002,0.362-1.535c0.42-0.869,0.697-1.767,0.917-2.698c0.443-1.874,0.46-3.838,0.17-5.74
		c-0.584-3.813-3.033-7.239-6.178-9.393c-3.144-2.149-7.329-2.862-11.035-1.987c-3.752,0.884-7.455,3.389-9.273,6.881
		c-1.821,3.496-2.347,7.701-1.089,11.479c1.225,3.675,3.98,6.712,7.45,8.408c2.569,1.262,5.518,1.578,8.325,1.172
		c0.72-0.107,0.703-0.162,1.118,0.375c0.562,0.729,1.123,1.459,1.682,2.188c0.951,1.234,1.899,2.465,2.849,3.697
		c-3.56,1.406-7.259,2.061-11.082,1.566c-3.805-0.5-7.434-2.031-10.448-4.404c-3.116-2.453-5.491-5.57-6.828-9.312
		c-1.254-3.518-1.697-7.775-1.067-11.473c0.673-3.941,1.89-7.624,4.499-10.737c2.436-2.909,5.621-5.594,9.326-6.695
		c7.551-2.244,16.052-1.064,21.711,4.783c2.765,2.857,4.904,6.126,5.903,10.011c0.968,3.773,1.123,7.93,0.09,11.717
		c-0.35,1.283-0.864,2.486-1.275,3.732c-0.177,0.543-0.168,0.523,0.161,0.951c0.474,0.615,0.948,1.23,1.422,1.846
		c1.366,1.775,2.731,3.553,4.098,5.326c0.647,0.846,1.331,2.1,2.155,2.74c0.271-0.828,1.141-1.648,1.567-2.43
		c0.47-0.867,1.019-1.68,1.413-2.586c0.751-1.73,1.52-3.381,2.051-5.205c1.096-3.758,1.477-7.602,1.364-11.505
		c-0.229-7.802-3.289-15.753-8.715-21.427C53.011,7.067,46.147,3.012,37.957,2.088C30.648,1.265,23.484,2.816,17.132,6.474
		 M34.579,31.654c-1.071,1.395-2.698,2.333-4.498,1.798c-1.697-0.505-2.951-2.135-2.835-3.924c0.26-4.08,5.779-5.196,7.521-1.432
		C35.317,29.283,35.025,30.503,34.579,31.654"/>
</g>
<g>
	<path fill="#FFFFFF" d="M386.708,16.817v-4.682h-1.676v-0.954h4.475v0.954h-1.66v4.682H386.708z"/>
	<path fill="#FFFFFF" d="M390.226,16.817v-5.636h1.702l1.022,3.844l1.013-3.844h1.705v5.636h-1.054l-0.003-4.438l-1.119,4.438
		h-1.097l-1.113-4.438l-0.003,4.438H390.226z"/>
</g>
</svg>
