<?xml version="1.0" encoding="utf-8"?>
<!-- Generator: Adobe Illustrator 16.2.1, SVG Export Plug-In . SVG Version: 6.00 Build 0)  -->
<!DOCTYPE svg PUBLIC "-//W3C//DTD SVG 1.1//EN" "http://www.w3.org/Graphics/SVG/1.1/DTD/svg11.dtd">
<svg version="1.1" id="Layer_1" xmlns="http://www.w3.org/2000/svg" xmlns:xlink="http://www.w3.org/1999/xlink" x="0px" y="0px"
	 width="32px" height="32px" viewBox="0 0 32 32" enable-background="new 0 0 32 32" xml:space="preserve">
<g id="Your_Icon">
	<path fill="#FFFFFF" d="M28.227,3.112H3.773c-0.729,0-1.322,0.593-1.322,1.322v23.131c0,0.729,0.593,1.322,1.322,1.322h24.453
		c0.729,0,1.322-0.593,1.322-1.322V4.434C29.549,3.705,28.956,3.112,28.227,3.112z M10.736,4.434c0.548,0,0.992,0.444,0.992,0.991
		c0,0.548-0.444,0.991-0.992,0.991c-0.547,0-0.991-0.443-0.991-0.991C9.745,4.878,10.189,4.434,10.736,4.434z M7.762,4.434
		c0.547,0,0.991,0.444,0.991,0.991c0,0.548-0.444,0.991-0.991,0.991S6.771,5.973,6.771,5.425C6.771,4.878,7.215,4.434,7.762,4.434z
		 M4.788,4.434c0.547,0,0.991,0.444,0.991,0.991c0,0.548-0.444,0.991-0.991,0.991c-0.547,0-0.991-0.443-0.991-0.991
		C3.797,4.878,4.241,4.434,4.788,4.434z M28.225,26.905H3.773V7.738h24.453L28.225,26.905z"/>
	<rect x="5.425" y="10.052" fill="#FFFFFF" width="9.914" height="1.322"/>
	<rect x="5.425" y="16" fill="#FFFFFF" width="9.914" height="1.322"/>
	<rect x="5.425" y="13.026" fill="#FFFFFF" width="12.888" height="1.321"/>
</g>
</svg>
