<?xml version="1.0" encoding="utf-8"?>
<!-- Generator: Adobe Illustrator 16.0.0, SVG Export Plug-In . SVG Version: 6.00 Build 0)  -->
<!DOCTYPE svg PUBLIC "-//W3C//DTD SVG 1.1//EN" "http://www.w3.org/Graphics/SVG/1.1/DTD/svg11.dtd">
<svg version="1.1" id="Layer_1" xmlns="http://www.w3.org/2000/svg" xmlns:xlink="http://www.w3.org/1999/xlink" x="0px" y="0px"
	 width="32px" height="32px" viewBox="0 0 32 32" enable-background="new 0 0 32 32" xml:space="preserve">
<path fill="#FFFFFF" d="M23.148,8.403h-0.149c-0.083,0-0.149-0.067-0.149-0.15c0-0.083,0.066-0.149,0.149-0.149h0.149
	c0.083,0,0.15,0.066,0.15,0.149C23.299,8.336,23.231,8.403,23.148,8.403L23.148,8.403z"/>
<path fill="#FFFFFF" d="M22.25,8.403H22.1c-0.082,0-0.149-0.067-0.149-0.15c0-0.083,0.067-0.149,0.149-0.149h0.15
	c0.082,0,0.149,0.066,0.149,0.149C22.399,8.336,22.332,8.403,22.25,8.403L22.25,8.403z"/>
<path fill="#FFFFFF" d="M21.351,8.403h-0.149c-0.083,0-0.149-0.067-0.149-0.15c0-0.083,0.066-0.149,0.149-0.149h0.149
	c0.083,0,0.15,0.066,0.15,0.149C21.501,8.336,21.434,8.403,21.351,8.403L21.351,8.403z"/>
<path fill="#FFFFFF" d="M20.452,8.403h-0.15c-0.083,0-0.149-0.067-0.149-0.15c0-0.083,0.066-0.149,0.149-0.149h0.15
	c0.083,0,0.149,0.066,0.149,0.149C20.602,8.336,20.535,8.403,20.452,8.403L20.452,8.403z"/>
<path fill="#FFFFFF" d="M19.553,8.403h-0.15c-0.082,0-0.149-0.067-0.149-0.15c0-0.083,0.067-0.149,0.149-0.149h0.15
	c0.083,0,0.15,0.066,0.15,0.149C19.703,8.336,19.636,8.403,19.553,8.403L19.553,8.403z"/>
<path fill="#FFFFFF" d="M18.653,8.403h-0.149c-0.083,0-0.15-0.067-0.15-0.15c0-0.083,0.067-0.149,0.15-0.149h0.149
	c0.083,0,0.15,0.066,0.15,0.149C18.804,8.336,18.736,8.403,18.653,8.403L18.653,8.403z"/>
<path fill="#FFFFFF" d="M17.755,8.403h-0.15c-0.082,0-0.149-0.067-0.149-0.15c0-0.083,0.067-0.149,0.149-0.149h0.15
	c0.082,0,0.149,0.066,0.149,0.149C17.904,8.336,17.837,8.403,17.755,8.403L17.755,8.403z"/>
<path fill="#FFFFFF" d="M16.855,8.403h-0.15c-0.082,0-0.148-0.067-0.148-0.15c0-0.083,0.066-0.149,0.148-0.149h0.15
	c0.083,0,0.15,0.066,0.15,0.149C17.006,8.336,16.938,8.403,16.855,8.403L16.855,8.403z"/>
<path fill="#FFFFFF" d="M15.957,8.403h-0.15c-0.082,0-0.149-0.067-0.149-0.15c0-0.083,0.067-0.149,0.149-0.149h0.15
	c0.082,0,0.149,0.066,0.149,0.149C16.106,8.336,16.039,8.403,15.957,8.403L15.957,8.403z"/>
<path fill="#FFFFFF" d="M15.058,8.403h-0.15c-0.082,0-0.149-0.067-0.149-0.15c0-0.083,0.067-0.149,0.149-0.149h0.15
	c0.083,0,0.15,0.066,0.15,0.149C15.208,8.336,15.141,8.403,15.058,8.403L15.058,8.403z"/>
<path fill="#FFFFFF" d="M14.159,8.403h-0.15c-0.083,0-0.15-0.067-0.15-0.15c0-0.083,0.067-0.149,0.15-0.149h0.15
	c0.082,0,0.149,0.066,0.149,0.149C14.309,8.336,14.241,8.403,14.159,8.403L14.159,8.403z"/>
<path fill="#FFFFFF" d="M13.26,8.403H13.11c-0.084,0-0.15-0.067-0.15-0.15c0-0.083,0.066-0.149,0.15-0.149h0.149
	c0.082,0,0.149,0.066,0.149,0.149C13.409,8.336,13.343,8.403,13.26,8.403L13.26,8.403z"/>
<path fill="#FFFFFF" d="M12.36,8.403h-0.15c-0.083,0-0.149-0.067-0.149-0.15c0-0.083,0.067-0.149,0.149-0.149h0.15
	c0.083,0,0.149,0.066,0.149,0.149C12.51,8.336,12.443,8.403,12.36,8.403L12.36,8.403z"/>
<path fill="#FFFFFF" d="M11.461,8.403h-0.15c-0.083,0-0.15-0.067-0.15-0.15c0-0.083,0.067-0.149,0.15-0.149h0.15
	c0.083,0,0.15,0.066,0.15,0.149C11.611,8.336,11.544,8.403,11.461,8.403L11.461,8.403z"/>
<path fill="#FFFFFF" d="M10.562,8.403h-0.15c-0.083,0-0.149-0.067-0.149-0.15c0-0.083,0.067-0.149,0.149-0.149h0.15
	c0.083,0,0.15,0.066,0.15,0.149C10.712,8.336,10.645,8.403,10.562,8.403L10.562,8.403z"/>
<path fill="#FFFFFF" d="M9.664,8.403h-0.15c-0.083,0-0.15-0.067-0.15-0.15c0-0.083,0.067-0.149,0.15-0.149h0.15
	c0.083,0,0.15,0.066,0.15,0.149C9.813,8.336,9.746,8.403,9.664,8.403L9.664,8.403z"/>
<path fill="#FFFFFF" d="M8.146,8.403h-0.15c-0.083,0-0.149-0.067-0.149-0.15c0-0.083,0.067-0.149,0.149-0.149h0.15
	c0.083,0,0.149,0.066,0.149,0.149C8.296,8.336,8.229,8.403,8.146,8.403L8.146,8.403z"/>
<path fill="#FFFFFF" d="M7.153,8.403H7.004c-0.083,0-0.15-0.067-0.15-0.15c0-0.083,0.067-0.149,0.15-0.149h0.149
	c0.083,0,0.15,0.066,0.15,0.149C7.304,8.336,7.236,8.403,7.153,8.403L7.153,8.403z"/>
<path fill="#FFFFFF" d="M6.161,8.403H6.011c-0.083,0-0.15-0.067-0.15-0.15c0-0.083,0.067-0.149,0.15-0.149h0.149
	c0.083,0,0.15,0.066,0.15,0.149C6.311,8.336,6.244,8.403,6.161,8.403L6.161,8.403z"/>
<path fill="#FFFFFF" d="M5.168,8.403H5.019c-0.083,0-0.15-0.067-0.15-0.15c0-0.083,0.067-0.149,0.15-0.149h0.149
	c0.083,0,0.15,0.066,0.15,0.149C5.318,8.336,5.251,8.403,5.168,8.403L5.168,8.403z"/>
<g>
	<path fill="#FFFFFF" d="M14.534,14.645h-0.149c-0.084,0-0.15-0.067-0.15-0.149c0-0.083,0.066-0.15,0.15-0.15h0.149
		c0.082,0,0.149,0.067,0.149,0.15C14.684,14.577,14.617,14.645,14.534,14.645L14.534,14.645z M13.636,14.645h-0.15
		c-0.083,0-0.149-0.067-0.149-0.149c0-0.083,0.066-0.15,0.149-0.15h0.15c0.082,0,0.149,0.067,0.149,0.15
		C13.785,14.577,13.718,14.645,13.636,14.645L13.636,14.645z M12.735,14.645h-0.149c-0.083,0-0.149-0.067-0.149-0.149
		c0-0.083,0.066-0.15,0.149-0.15h0.149c0.083,0,0.15,0.067,0.15,0.15C12.886,14.577,12.818,14.645,12.735,14.645L12.735,14.645z
		 M11.837,14.645h-0.15c-0.083,0-0.149-0.067-0.149-0.149c0-0.083,0.067-0.15,0.149-0.15h0.15c0.083,0,0.15,0.067,0.15,0.15
		C11.987,14.577,11.919,14.645,11.837,14.645L11.837,14.645z M6.442,14.645H6.293c-0.083,0-0.149-0.067-0.149-0.149
		c0-0.083,0.066-0.15,0.149-0.15h0.149c0.083,0,0.15,0.067,0.15,0.15C6.593,14.577,6.525,14.645,6.442,14.645L6.442,14.645z
		 M5.544,14.645h-0.15c-0.083,0-0.149-0.067-0.149-0.149c0-0.083,0.067-0.15,0.149-0.15h0.15c0.083,0,0.149,0.067,0.149,0.15
		C5.693,14.577,5.627,14.645,5.544,14.645L5.544,14.645z"/>
</g>
<path fill="#FFFFFF" d="M28.256,20.886c-0.082,0-0.155-0.067-0.155-0.149c0-0.083,0.062-0.15,0.145-0.15h0.011
	c0.083,0,0.149,0.067,0.149,0.15C28.405,20.818,28.339,20.886,28.256,20.886L28.256,20.886z"/>
<path fill="#FFFFFF" d="M27.496,20.886h-0.149c-0.084,0-0.15-0.067-0.15-0.149c0-0.083,0.066-0.15,0.15-0.15h0.149
	c0.082,0,0.149,0.067,0.149,0.15C27.646,20.818,27.578,20.886,27.496,20.886L27.496,20.886z"/>
<path fill="#FFFFFF" d="M26.597,20.886h-0.149c-0.083,0-0.149-0.067-0.149-0.149c0-0.083,0.066-0.15,0.149-0.15h0.149
	c0.083,0,0.15,0.067,0.15,0.15C26.747,20.818,26.68,20.886,26.597,20.886L26.597,20.886z"/>
<path fill="#FFFFFF" d="M25.698,20.886h-0.149c-0.084,0-0.15-0.067-0.15-0.149c0-0.083,0.066-0.15,0.15-0.15h0.149
	c0.082,0,0.149,0.067,0.149,0.15C25.848,20.818,25.78,20.886,25.698,20.886L25.698,20.886z"/>
<path fill="#FFFFFF" d="M24.799,20.886h-0.149c-0.084,0-0.149-0.067-0.149-0.149c0-0.083,0.065-0.15,0.149-0.15h0.149
	c0.083,0,0.15,0.067,0.15,0.15C24.949,20.818,24.882,20.886,24.799,20.886L24.799,20.886z"/>
<path fill="#FFFFFF" d="M23.899,20.886H23.75c-0.083,0-0.15-0.067-0.15-0.149c0-0.083,0.067-0.15,0.15-0.15h0.149
	c0.083,0,0.15,0.067,0.15,0.15C24.05,20.818,23.982,20.886,23.899,20.886L23.899,20.886z"/>
<path fill="#FFFFFF" d="M23.001,20.886h-0.15c-0.083,0-0.148-0.067-0.148-0.149c0-0.083,0.065-0.15,0.148-0.15h0.15
	c0.083,0,0.149,0.067,0.149,0.15C23.15,20.818,23.084,20.886,23.001,20.886L23.001,20.886z"/>
<path fill="#FFFFFF" d="M22.102,20.886h-0.149c-0.083,0-0.149-0.067-0.149-0.149c0-0.083,0.066-0.15,0.149-0.15h0.149
	c0.083,0,0.15,0.067,0.15,0.15C22.252,20.818,22.185,20.886,22.102,20.886L22.102,20.886z"/>
<path fill="#FFFFFF" d="M21.203,20.886h-0.149c-0.084,0-0.15-0.067-0.15-0.149c0-0.083,0.066-0.15,0.15-0.15h0.149
	c0.083,0,0.149,0.067,0.149,0.15C21.353,20.818,21.286,20.886,21.203,20.886L21.203,20.886z"/>
<path fill="#FFFFFF" d="M14.909,20.886H14.76c-0.083,0-0.15-0.067-0.15-0.149c0-0.083,0.067-0.15,0.15-0.15h0.149
	c0.083,0,0.15,0.067,0.15,0.15C15.06,20.818,14.992,20.886,14.909,20.886L14.909,20.886z"/>
<path fill="#FFFFFF" d="M14.011,20.886h-0.15c-0.082,0-0.149-0.067-0.149-0.149c0-0.083,0.067-0.15,0.149-0.15h0.15
	c0.083,0,0.149,0.067,0.149,0.15C14.16,20.818,14.094,20.886,14.011,20.886L14.011,20.886z"/>
<path fill="#FFFFFF" d="M13.111,20.886h-0.15c-0.082,0-0.149-0.067-0.149-0.149c0-0.083,0.067-0.15,0.149-0.15h0.15
	c0.083,0,0.149,0.067,0.149,0.15C13.262,20.818,13.194,20.886,13.111,20.886L13.111,20.886z"/>
<path fill="#FFFFFF" d="M12.212,20.886h-0.149c-0.083,0-0.15-0.067-0.15-0.149c0-0.083,0.067-0.15,0.15-0.15h0.149
	c0.083,0,0.15,0.067,0.15,0.15C12.362,20.818,12.295,20.886,12.212,20.886L12.212,20.886z"/>
<path fill="#FFFFFF" d="M5.919,20.886H5.77c-0.083,0-0.15-0.067-0.15-0.149c0-0.083,0.067-0.15,0.15-0.15h0.149
	c0.083,0,0.15,0.067,0.15,0.15C6.069,20.818,6.002,20.886,5.919,20.886L5.919,20.886z"/>
<path fill="#FFFFFF" d="M8.943,26.263c-0.083,0-0.15-0.066-0.15-0.149c0-0.082,0.067-0.155,0.15-0.155s0.15,0.062,0.15,0.144v0.012
	C9.093,26.196,9.026,26.263,8.943,26.263L8.943,26.263z"/>
<path fill="#FFFFFF" d="M8.943,25.503c-0.083,0-0.15-0.067-0.15-0.15v-0.149c0-0.083,0.067-0.149,0.15-0.149s0.15,0.066,0.15,0.149
	v0.149C9.093,25.436,9.026,25.503,8.943,25.503L8.943,25.503z"/>
<path fill="#FFFFFF" d="M8.943,19.209c-0.083,0-0.15-0.066-0.15-0.149V18.91c0-0.083,0.067-0.15,0.15-0.15s0.15,0.067,0.15,0.15
	v0.149C9.093,19.143,9.026,19.209,8.943,19.209L8.943,19.209z"/>
<path fill="#FFFFFF" d="M8.943,12.917c-0.083,0-0.15-0.067-0.15-0.15v-0.149c0-0.082,0.067-0.149,0.15-0.149s0.15,0.067,0.15,0.149
	v0.149C9.093,12.85,9.026,12.917,8.943,12.917L8.943,12.917z"/>
<path fill="#FFFFFF" d="M8.943,12.018c-0.083,0-0.15-0.067-0.15-0.149v-0.15c0-0.082,0.067-0.149,0.15-0.149s0.15,0.067,0.15,0.149
	v0.15C9.093,11.95,9.026,12.018,8.943,12.018L8.943,12.018z"/>
<path fill="#FFFFFF" d="M8.943,11.118c-0.083,0-0.15-0.066-0.15-0.149v-0.149c0-0.083,0.067-0.15,0.15-0.15s0.15,0.067,0.15,0.15
	v0.149C9.093,11.052,9.026,11.118,8.943,11.118L8.943,11.118z"/>
<path fill="#FFFFFF" d="M8.943,10.22c-0.083,0-0.15-0.067-0.15-0.15V9.92c0-0.083,0.067-0.149,0.15-0.149s0.15,0.066,0.15,0.149
	v0.149C9.093,10.152,9.026,10.22,8.943,10.22L8.943,10.22z"/>
<path fill="#FFFFFF" d="M8.943,9.32c-0.083,0-0.15-0.066-0.15-0.149v-0.15c0-0.083,0.067-0.15,0.15-0.15s0.15,0.067,0.15,0.15v0.15
	C9.093,9.254,9.026,9.32,8.943,9.32L8.943,9.32z"/>
<path fill="#FFFFFF" d="M8.943,8.421c-0.083,0-0.15-0.067-0.15-0.149V8.123c0-0.083,0.067-0.15,0.15-0.15s0.15,0.066,0.15,0.15
	v0.149C9.093,8.354,9.026,8.421,8.943,8.421L8.943,8.421z"/>
<path fill="#FFFFFF" d="M8.943,7.522c-0.083,0-0.15-0.066-0.15-0.15v-0.15c0-0.083,0.067-0.15,0.15-0.15s0.15,0.067,0.15,0.15v0.15
	C9.093,7.456,9.026,7.522,8.943,7.522L8.943,7.522z"/>
<path fill="#FFFFFF" d="M8.943,6.624c-0.083,0-0.15-0.067-0.15-0.15v-0.15c0-0.083,0.067-0.149,0.15-0.149s0.15,0.067,0.15,0.149
	v0.15C9.093,6.557,9.026,6.624,8.943,6.624L8.943,6.624z"/>
<path fill="#FFFFFF" d="M8.943,5.725c-0.083,0-0.15-0.067-0.15-0.15V5.425c0-0.083,0.067-0.15,0.15-0.15s0.15,0.067,0.15,0.15v0.149
	C9.093,5.657,9.026,5.725,8.943,5.725L8.943,5.725z"/>
<path fill="#FFFFFF" d="M8.943,4.825c-0.083,0-0.15-0.066-0.15-0.149v-0.15c0-0.083,0.067-0.149,0.15-0.149s0.15,0.066,0.15,0.149
	v0.15C9.093,4.759,9.026,4.825,8.943,4.825L8.943,4.825z"/>
<path fill="#FFFFFF" d="M17.369,26.263c-0.083,0-0.149-0.066-0.149-0.149c0-0.082,0.066-0.155,0.149-0.155s0.15,0.062,0.15,0.144
	v0.012C17.52,26.196,17.452,26.263,17.369,26.263L17.369,26.263z"/>
<path fill="#FFFFFF" d="M17.369,25.503c-0.083,0-0.149-0.067-0.149-0.15v-0.149c0-0.083,0.066-0.149,0.149-0.149
	s0.15,0.066,0.15,0.149v0.149C17.52,25.436,17.452,25.503,17.369,25.503L17.369,25.503z"/>
<path fill="#FFFFFF" d="M17.369,24.604c-0.083,0-0.149-0.066-0.149-0.149v-0.149c0-0.083,0.066-0.15,0.149-0.15
	s0.15,0.067,0.15,0.15v0.149C17.52,24.536,17.452,24.604,17.369,24.604L17.369,24.604z"/>
<path fill="#FFFFFF" d="M17.369,23.705c-0.083,0-0.149-0.066-0.149-0.149v-0.15c0-0.083,0.066-0.149,0.149-0.149
	s0.15,0.066,0.15,0.149v0.15C17.52,23.639,17.452,23.705,17.369,23.705L17.369,23.705z"/>
<path fill="#FFFFFF" d="M17.369,17.412c-0.083,0-0.149-0.067-0.149-0.149v-0.15c0-0.083,0.066-0.15,0.149-0.15s0.15,0.067,0.15,0.15
	v0.15C17.52,17.345,17.452,17.412,17.369,17.412L17.369,17.412z"/>
<path fill="#FFFFFF" d="M17.369,11.118c-0.083,0-0.149-0.066-0.149-0.149v-0.149c0-0.083,0.066-0.15,0.149-0.15
	s0.15,0.067,0.15,0.15v0.149C17.52,11.052,17.452,11.118,17.369,11.118L17.369,11.118z"/>
<path fill="#FFFFFF" d="M17.369,10.22c-0.083,0-0.149-0.067-0.149-0.15V9.92c0-0.083,0.066-0.149,0.149-0.149s0.15,0.066,0.15,0.149
	v0.149C17.52,10.152,17.452,10.22,17.369,10.22L17.369,10.22z"/>
<path fill="#FFFFFF" d="M17.369,9.32c-0.083,0-0.149-0.066-0.149-0.149v-0.15c0-0.083,0.066-0.15,0.149-0.15s0.15,0.067,0.15,0.15
	v0.15C17.52,9.254,17.452,9.32,17.369,9.32L17.369,9.32z"/>
<path fill="#FFFFFF" d="M17.369,7.522c-0.083,0-0.149-0.066-0.149-0.15v-0.15c0-0.083,0.066-0.15,0.149-0.15s0.15,0.067,0.15,0.15
	v0.15C17.52,7.456,17.452,7.522,17.369,7.522L17.369,7.522z"/>
<path fill="#FFFFFF" d="M17.369,6.624c-0.083,0-0.149-0.067-0.149-0.15v-0.15c0-0.083,0.066-0.149,0.149-0.149
	s0.15,0.067,0.15,0.149v0.15C17.52,6.557,17.452,6.624,17.369,6.624L17.369,6.624z"/>
<path fill="#FFFFFF" d="M17.369,5.725c-0.083,0-0.149-0.067-0.149-0.15V5.425c0-0.083,0.066-0.15,0.149-0.15s0.15,0.067,0.15,0.15
	v0.149C17.52,5.657,17.452,5.725,17.369,5.725L17.369,5.725z"/>
<path fill="#FFFFFF" d="M17.369,4.825c-0.083,0-0.149-0.066-0.149-0.149v-0.15c0-0.083,0.066-0.149,0.149-0.149
	s0.15,0.066,0.15,0.149v0.15C17.52,4.759,17.452,4.825,17.369,4.825L17.369,4.825z"/>
<path fill="#FFFFFF" d="M26.034,26.263c-0.082,0-0.149-0.066-0.149-0.149c0-0.082,0.067-0.155,0.149-0.155
	c0.083,0,0.15,0.062,0.15,0.144v0.012C26.185,26.196,26.117,26.263,26.034,26.263L26.034,26.263z"/>
<path fill="#FFFFFF" d="M26.034,25.503c-0.082,0-0.149-0.067-0.149-0.15v-0.149c0-0.083,0.067-0.149,0.149-0.149
	c0.083,0,0.15,0.066,0.15,0.149v0.149C26.185,25.436,26.117,25.503,26.034,25.503L26.034,25.503z"/>
<path fill="#FFFFFF" d="M26.034,24.604c-0.082,0-0.149-0.066-0.149-0.149v-0.149c0-0.083,0.067-0.15,0.149-0.15
	c0.083,0,0.15,0.067,0.15,0.15v0.149C26.185,24.536,26.117,24.604,26.034,24.604L26.034,24.604z"/>
<path fill="#FFFFFF" d="M26.034,23.705c-0.082,0-0.149-0.066-0.149-0.149v-0.15c0-0.083,0.067-0.149,0.149-0.149
	c0.083,0,0.15,0.066,0.15,0.149v0.15C26.185,23.639,26.117,23.705,26.034,23.705L26.034,23.705z"/>
<path fill="#FFFFFF" d="M26.034,22.806c-0.082,0-0.149-0.066-0.149-0.149v-0.149c0-0.084,0.067-0.15,0.149-0.15
	c0.083,0,0.15,0.066,0.15,0.15v0.149C26.185,22.739,26.117,22.806,26.034,22.806L26.034,22.806z"/>
<path fill="#FFFFFF" d="M26.034,21.907c-0.082,0-0.149-0.067-0.149-0.149v-0.15c0-0.083,0.067-0.149,0.149-0.149
	c0.083,0,0.15,0.066,0.15,0.149v0.15C26.185,21.84,26.117,21.907,26.034,21.907L26.034,21.907z"/>
<path fill="#FFFFFF" d="M26.034,20.109c-0.082,0-0.149-0.067-0.149-0.15v-0.15c0-0.082,0.067-0.149,0.149-0.149
	c0.083,0,0.15,0.067,0.15,0.149v0.15C26.185,20.042,26.117,20.109,26.034,20.109L26.034,20.109z"/>
<path fill="#FFFFFF" d="M26.034,19.209c-0.082,0-0.149-0.066-0.149-0.149V18.91c0-0.083,0.067-0.15,0.149-0.15
	c0.083,0,0.15,0.067,0.15,0.15v0.149C26.185,19.143,26.117,19.209,26.034,19.209L26.034,19.209z"/>
<path fill="#FFFFFF" d="M26.034,18.311c-0.082,0-0.149-0.066-0.149-0.149v-0.15c0-0.082,0.067-0.149,0.149-0.149
	c0.083,0,0.15,0.067,0.15,0.149v0.15C26.185,18.244,26.117,18.311,26.034,18.311L26.034,18.311z"/>
<path fill="#FFFFFF" d="M26.034,12.018c-0.082,0-0.149-0.067-0.149-0.149v-0.15c0-0.082,0.067-0.149,0.149-0.149
	c0.083,0,0.15,0.067,0.15,0.149v0.15C26.185,11.95,26.117,12.018,26.034,12.018L26.034,12.018z"/>
<path fill="#FFFFFF" d="M26.034,5.725c-0.082,0-0.149-0.067-0.149-0.15V5.425c0-0.083,0.067-0.15,0.149-0.15
	c0.083,0,0.15,0.067,0.15,0.15v0.149C26.185,5.657,26.117,5.725,26.034,5.725L26.034,5.725z"/>
<path fill="#FFFFFF" d="M26.034,4.825c-0.082,0-0.149-0.066-0.149-0.149v-0.15c0-0.083,0.067-0.149,0.149-0.149
	c0.083,0,0.15,0.066,0.15,0.149v0.15C26.185,4.759,26.117,4.825,26.034,4.825L26.034,4.825z"/>
<path fill="#FFFFFF" d="M26.019,6.428c-1.297,0-2.352,1.054-2.352,2.351c0,0.568,0.202,1.09,0.538,1.497
	c-1.136,1.594-4.418,6.193-5.479,7.683c-0.257-0.097-0.534-0.152-0.823-0.152c-0.729,0-1.38,0.332-1.812,0.854l-4.976-2.28
	c0.021-0.129,0.036-0.259,0.036-0.394c0-1.298-1.055-2.352-2.352-2.352c-1.297,0-2.352,1.054-2.352,2.352
	c0,1.297,1.055,2.351,2.352,2.351c0.728,0,1.379-0.333,1.812-0.854l4.975,2.281c-0.022,0.128-0.036,0.259-0.036,0.393
	c0,1.298,1.056,2.353,2.353,2.353c1.296,0,2.351-1.055,2.351-2.353c0-0.576-0.209-1.104-0.555-1.514
	c0.474-0.624,1.288-1.764,2.781-3.859l2.715-3.805c0.258,0.096,0.534,0.151,0.824,0.151c1.296,0,2.352-1.055,2.352-2.352
	C28.37,7.482,27.314,6.428,26.019,6.428z M8.799,17.124c-0.626,0-1.138-0.511-1.138-1.139c0-0.627,0.511-1.137,1.138-1.137
	c0.627,0,1.138,0.51,1.138,1.137C9.937,16.613,9.427,17.124,8.799,17.124z M17.902,21.296c-0.627,0-1.138-0.511-1.138-1.139
	c0-0.626,0.511-1.137,1.138-1.137s1.138,0.511,1.138,1.137C19.04,20.785,18.529,21.296,17.902,21.296z M26.019,9.917
	c-0.627,0-1.138-0.51-1.138-1.138c0-0.627,0.511-1.137,1.138-1.137s1.138,0.51,1.138,1.137C27.156,9.407,26.646,9.917,26.019,9.917z
	"/>
<path fill="#FFFFFF" d="M25.715,12.647c-1.024,0-1.895,0.66-2.217,1.576l-3.809-0.286c-0.182-1.116-1.15-1.973-2.318-1.973
	c-1.296,0-2.352,1.056-2.352,2.352c0,0.373,0.09,0.724,0.244,1.037c-0.445,0.389-1.14,1.006-2.208,1.965l-3.264,2.928
	c-0.372-0.247-0.817-0.391-1.296-0.391c-1.296,0-2.351,1.054-2.351,2.35c0,1.298,1.054,2.353,2.351,2.353s2.352-1.055,2.352-2.353
	c0-0.376-0.092-0.732-0.25-1.048c1.354-1.207,4.271-3.807,5.476-4.881c0.372,0.248,0.818,0.393,1.298,0.393
	c1.004,0,1.861-0.635,2.197-1.522l3.837,0.287c0.204,1.09,1.161,1.917,2.309,1.917c1.298,0,2.353-1.054,2.353-2.352
	C28.066,13.703,27.013,12.647,25.715,12.647z M8.496,23.343c-0.627,0-1.137-0.51-1.137-1.138c0-0.626,0.51-1.137,1.137-1.137
	c0.628,0,1.138,0.51,1.138,1.137C9.634,22.833,9.124,23.343,8.496,23.343z M17.371,15.455c-0.44,0-0.82-0.256-1.009-0.623
	l-0.021-0.081l-0.016,0.016c-0.059-0.139-0.093-0.291-0.093-0.45c0-0.627,0.51-1.138,1.138-1.138c0.627,0,1.138,0.511,1.138,1.138
	C18.509,14.944,17.998,15.455,17.371,15.455z M25.715,16.138c-0.627,0-1.138-0.511-1.138-1.138c0-0.628,0.511-1.139,1.138-1.139
	s1.138,0.511,1.138,1.139C26.853,15.627,26.343,16.138,25.715,16.138z"/>
<path fill="#FFFFFF" d="M29.604,28.773H3.008c-0.415,0-0.75-0.336-0.75-0.749V3.975c0-0.414,0.335-0.749,0.75-0.749
	c0.414,0,0.749,0.334,0.749,0.749v23.299h25.848c0.413,0,0.749,0.336,0.749,0.75C30.354,28.438,30.018,28.773,29.604,28.773
	L29.604,28.773z"/>
</svg>
