<?xml version="1.0" encoding="utf-8"?>
<!-- Generator: Adobe Illustrator 16.2.1, SVG Export Plug-In . SVG Version: 6.00 Build 0)  -->
<!DOCTYPE svg PUBLIC "-//W3C//DTD SVG 1.1//EN" "http://www.w3.org/Graphics/SVG/1.1/DTD/svg11.dtd">
<svg version="1.1" id="Your_Icon" xmlns="http://www.w3.org/2000/svg" xmlns:xlink="http://www.w3.org/1999/xlink" x="0px" y="0px"
	 width="100px" height="100px" viewBox="0 0 100 100" enable-background="new 0 0 100 100" xml:space="preserve">
<path fill="#959595" d="M89.177,39.458l-0.088,0.105l-0.091,0.102c-0.027,0.032-0.055,0.061-0.081,0.089l-7.963,9.519v27.075
	c0,2.545-2.062,4.606-4.606,4.606H23.987c-2.544,0-4.606-2.062-4.606-4.606V23.987c0-2.544,2.062-4.606,4.606-4.606h43.38
	l7.709-9.213h-51.09c-7.62,0-13.82,6.2-13.82,13.82v52.36c0,7.62,6.2,13.819,13.82,13.819h52.36c7.62,0,13.819-6.199,13.819-13.819
	V38.274L89.177,39.458z"/>
<path fill="#959595" d="M88.116,17.569c-2.371-1.979-5.897-1.661-7.878,0.712L49.873,54.667L36.6,39.564
	c-2.039-2.322-5.572-2.55-7.894-0.51c-2.321,2.038-2.548,5.573-0.509,7.893l14.425,16.413l-0.002,0.002l7.467,8.498L81.986,33.62
	c0.035-0.041,0.074-0.08,0.109-0.121l6.733-8.053C90.811,23.075,90.49,19.548,88.116,17.569z"/>
</svg>
