<?xml version="1.0" encoding="utf-8"?>
<!-- Generator: Adobe Illustrator 16.0.0, SVG Export Plug-In . SVG Version: 6.00 Build 0)  -->
<!DOCTYPE svg PUBLIC "-//W3C//DTD SVG 1.1//EN" "http://www.w3.org/Graphics/SVG/1.1/DTD/svg11.dtd">
<svg version="1.1" id="Layer_1" xmlns="http://www.w3.org/2000/svg" xmlns:xlink="http://www.w3.org/1999/xlink" x="0px" y="0px"
	 width="32px" height="32px" viewBox="0 0 32 32" enable-background="new 0 0 32 32" xml:space="preserve">
<g>
	<g>
		<path fill="#FFFFFF" d="M16,12.674c-1.833,0-3.327,1.492-3.327,3.327c0,1.833,1.494,3.327,3.327,3.327
			c1.835,0,3.327-1.494,3.327-3.327C19.327,14.166,17.835,12.674,16,12.674z M16,18.606c-1.438,0-2.606-1.17-2.606-2.605
			c0-1.438,1.168-2.609,2.606-2.609s2.608,1.171,2.608,2.609C18.608,17.437,17.438,18.606,16,18.606z"/>
	</g>
</g>
<g>
	<g>
		<path fill="#FFFFFF" d="M16,9.965c-3.327,0-6.034,2.705-6.034,6.036c0,3.327,2.707,6.034,6.034,6.034
			c3.327,0,6.036-2.707,6.036-6.034C22.036,12.67,19.327,9.965,16,9.965z M16,19.714c-2.047,0-3.714-1.665-3.714-3.712
			c0-2.05,1.667-3.713,3.714-3.713c2.046,0,3.713,1.663,3.713,3.713C19.713,18.047,18.046,19.714,16,19.714z"/>
	</g>
</g>
<path fill="#FFFFFF" d="M16.001,1.208C7.831,1.208,1.209,7.833,1.209,16s6.622,14.792,14.792,14.792
	c8.167,0,14.79-6.625,14.79-14.792S24.169,1.208,16.001,1.208z M16.001,22.441c-3.56,0-6.442-2.885-6.442-6.441
	c0-3.557,2.882-6.442,6.442-6.442c3.557,0,6.442,2.885,6.442,6.442C22.443,19.557,19.559,22.441,16.001,22.441z"/>
</svg>
