<?xml version="1.0" encoding="utf-8"?>
<!-- Generator: Adobe Illustrator 16.0.0, SVG Export Plug-In . SVG Version: 6.00 Build 0)  -->
<!DOCTYPE svg PUBLIC "-//W3C//DTD SVG 1.1//EN" "http://www.w3.org/Graphics/SVG/1.1/DTD/svg11.dtd">
<svg version="1.1" id="Layer_1" xmlns="http://www.w3.org/2000/svg" xmlns:xlink="http://www.w3.org/1999/xlink" x="0px" y="0px"
	 width="32px" height="32px" viewBox="0 0 32 32" enable-background="new 0 0 32 32" xml:space="preserve">
<g>
	<path fill="#FFFFFF" d="M4.226,20.657h23.579c0.182,0,0.329-0.146,0.329-0.327V6.516c0-0.646-0.525-1.171-1.171-1.171H5.068
		c-0.646,0-1.171,0.525-1.171,1.171V20.33C3.897,20.51,4.044,20.657,4.226,20.657z M4.744,6.257h22.544v13.609H4.744V6.257z"/>
	<path fill="#FFFFFF" d="M31.726,25.833c-0.001-0.009-0.001-0.017-0.002-0.024c-0.007-0.107-0.044-0.216-0.107-0.318
		c-0.01-0.017-0.021-0.032-0.034-0.047l-3.543-4.028c-0.042-0.046-0.093-0.076-0.148-0.095c-0.017-0.036-0.054-0.062-0.099-0.062
		h-4.027c-0.042,0-0.079,0.023-0.099,0.061c-0.019,0.037-0.015,0.082,0.01,0.114l0.11,0.147H8.09l0.111-0.147
		c0.024-0.032,0.028-0.077,0.01-0.114s-0.056-0.061-0.098-0.061H4.207c-0.045,0-0.082,0.026-0.099,0.062
		c-0.056,0.019-0.107,0.049-0.148,0.095l-3.543,4.028c-0.013,0.015-0.024,0.03-0.034,0.047c-0.081,0.134-0.119,0.274-0.108,0.413
		l-0.001,0.824c0.013,0.438,0.779,1.021,1.343,1.021h28.768c0.404,0,0.841-0.271,1.095-0.541c0.17-0.18,0.253-0.356,0.248-0.523
		L31.726,25.833z M4.453,21.851c0.093-0.106,0.104-0.256,0.042-0.373h3.4l-0.11,0.147c-0.024,0.032-0.028,0.076-0.01,0.114
		C7.793,21.776,7.831,21.8,7.873,21.8h16.132c0.041,0,0.079-0.023,0.098-0.061c0.02-0.037,0.015-0.082-0.011-0.114l-0.109-0.147
		h3.523c-0.064,0.117-0.054,0.267,0.04,0.373l3.443,3.912c-0.019,0.021-0.029,0.05-0.028,0.08c0.006,0.05-0.01,0.094-0.048,0.135
		c-0.09,0.098-0.286,0.155-0.528,0.155H18.132l0,0c-0.03,0-0.057,0.011-0.077,0.033c-0.022,0.021-0.033,0.047-0.033,0.077
		c0,0.198-0.214,0.213-0.278,0.213h-3.459c-0.066,0-0.279-0.015-0.279-0.213c0-0.03-0.011-0.057-0.032-0.077
		c-0.02-0.022-0.048-0.033-0.077-0.033l0,0H1.616c-0.324,0-0.561-0.104-0.578-0.256c-0.004-0.036-0.027-0.065-0.056-0.081
		L4.453,21.851z M30.384,27.092H1.616c-0.23,0-0.605-0.279-0.686-0.416l0.001-0.549c0.133,0.141,0.374,0.226,0.685,0.226h12.183
		c0.049,0.197,0.231,0.323,0.485,0.323h3.458c0.254,0,0.437-0.126,0.485-0.323h12.156c0.308,0,0.551-0.08,0.685-0.222l0.001,0.541
		C30.998,26.807,30.623,27.092,30.384,27.092z"/>
	<polygon fill="#FFFFFF" points="24.409,22.651 7.443,22.651 6.157,24.358 25.722,24.358 	"/>
</g>
</svg>
