<?xml version="1.0" encoding="utf-8"?>
<!-- Generator: Adobe Illustrator 16.0.0, SVG Export Plug-In . SVG Version: 6.00 Build 0)  -->
<!DOCTYPE svg PUBLIC "-//W3C//DTD SVG 1.1//EN" "http://www.w3.org/Graphics/SVG/1.1/DTD/svg11.dtd">
<svg version="1.1" id="Layer_1" xmlns="http://www.w3.org/2000/svg" xmlns:xlink="http://www.w3.org/1999/xlink" x="0px" y="0px"
	 width="32px" height="32px" viewBox="0 0 32 32" enable-background="new 0 0 32 32" xml:space="preserve">
<circle fill="none" stroke="#CCCCCC" stroke-miterlimit="10" cx="16.333" cy="15.5" r="14"/>
<g>
	<path fill="#CCCCCC" d="M16.344,10.722c-2.654,0-4.812,2.159-4.812,4.812c0,2.273,2.22,4.612,2.283,4.746
		c0.065,0.137,0.204,0.225,0.358,0.225h4.66c0.16,0,0.306-0.096,0.366-0.244c0.055-0.129,1.957-2.73,1.957-4.727
		C21.157,12.881,18.998,10.722,16.344,10.722z"/>
	<path fill="#CCCCCC" d="M18.634,21.18h-4.323c-0.22,0-0.398,0.179-0.398,0.396c0,0.219,0.178,0.397,0.398,0.397h4.324
		c0.22,0,0.397-0.179,0.397-0.397C19.032,21.358,18.854,21.18,18.634,21.18z"/>
	<path fill="#CCCCCC" d="M18.238,22.648h-3.531c-0.219,0-0.397,0.177-0.397,0.396c0,0.22,0.178,0.397,0.397,0.397h3.531
		c0.22,0,0.396-0.178,0.396-0.397C18.634,22.825,18.458,22.648,18.238,22.648z"/>
	<path fill="#CCCCCC" d="M17.33,24.239h-1.811c-0.219,0-0.397,0.178-0.397,0.397c0,0.718,0.585,1.302,1.302,1.302
		c0.718,0,1.303-0.584,1.303-1.302C17.727,24.417,17.549,24.239,17.33,24.239z"/>
	<path fill="#CCCCCC" d="M9.509,15.217H7.207c-0.219,0-0.396,0.177-0.396,0.397c0,0.218,0.178,0.396,0.396,0.396h2.302
		c0.219,0,0.396-0.177,0.396-0.396C9.905,15.395,9.728,15.217,9.509,15.217z"/>
	<path fill="#CCCCCC" d="M11.769,10.499l-1.628-1.627c-0.155-0.155-0.406-0.155-0.561,0c-0.155,0.155-0.155,0.406,0,0.561
		l1.627,1.627c0.155,0.156,0.406,0.156,0.562,0C11.923,10.905,11.923,10.654,11.769,10.499z"/>
	<path fill="#CCCCCC" d="M16.306,9.157c0.219,0,0.397-0.178,0.397-0.397V6.458c0-0.219-0.178-0.396-0.397-0.396
		c-0.22,0-0.397,0.178-0.397,0.396V8.76C15.908,8.979,16.085,9.157,16.306,9.157z"/>
	<path fill="#CCCCCC" d="M23.047,8.832c-0.154-0.155-0.405-0.155-0.562,0l-1.627,1.628c-0.154,0.154-0.154,0.406,0,0.561
		c0.155,0.155,0.406,0.155,0.562,0l1.627-1.628C23.203,9.237,23.203,8.986,23.047,8.832z"/>
	<path fill="#CCCCCC" d="M25.46,15.16h-2.302c-0.219,0-0.397,0.178-0.397,0.396c0,0.219,0.179,0.397,0.397,0.397h2.302
		c0.22,0,0.397-0.178,0.396-0.397C25.856,15.337,25.68,15.16,25.46,15.16z"/>
</g>
</svg>
