<?xml version="1.0" encoding="utf-8"?>
<!-- Generator: Adobe Illustrator 16.0.0, SVG Export Plug-In . SVG Version: 6.00 Build 0)  -->
<!DOCTYPE svg PUBLIC "-//W3C//DTD SVG 1.1//EN" "http://www.w3.org/Graphics/SVG/1.1/DTD/svg11.dtd">
<svg version="1.1" id="Layer_1" xmlns="http://www.w3.org/2000/svg" xmlns:xlink="http://www.w3.org/1999/xlink" x="0px" y="0px"
	 width="64px" height="64px" viewBox="0 0 64 64" enable-background="new 0 0 64 64" xml:space="preserve">
<g id="Your_Icon">
	<path fill="#7A868D" d="M32.003,15.081C19.745,15.081,7.525,23.239,1.25,32c6.275,8.811,18.49,16.919,30.753,16.919
		c12.262,0,25.727-8.108,30.747-16.894C57.729,23.239,44.265,15.081,32.003,15.081z M32,44.684c-7.005,0-12.684-5.678-12.684-12.684
		c0-7.005,5.679-12.684,12.684-12.684c7.006,0,12.685,5.679,12.685,12.684C44.685,39.006,39.006,44.684,32,44.684z"/>
	<path fill="#7A868D" d="M39.795,27.439c0,1.667-1.351,3.016-3.016,3.016c-1.666,0-3.015-1.349-3.016-3.016
		c0-1.667,1.349-3.017,3.016-3.017c0.137,0,0.269,0.022,0.4,0.041c-1.475-1.015-3.257-1.611-5.18-1.611
		c-5.052,0-9.148,4.096-9.148,9.148c0,5.052,4.096,9.148,9.148,9.148c5.053,0,9.148-4.096,9.148-9.148
		c0-1.767-0.51-3.412-1.378-4.811C39.778,27.273,39.795,27.354,39.795,27.439z"/>
</g>
</svg>
