<?xml version="1.0" encoding="utf-8"?>
<!-- Generator: Adobe Illustrator 16.0.0, SVG Export Plug-In . SVG Version: 6.00 Build 0)  -->
<!DOCTYPE svg PUBLIC "-//W3C//DTD SVG 1.1//EN" "http://www.w3.org/Graphics/SVG/1.1/DTD/svg11.dtd">
<svg version="1.1" id="Layer_1" xmlns="http://www.w3.org/2000/svg" xmlns:xlink="http://www.w3.org/1999/xlink" x="0px" y="0px"
	 width="32px" height="32px" viewBox="0 0 32 32" enable-background="new 0 0 32 32" xml:space="preserve">
<g id="Your_Icon">
	<path fill="#FFFFFF" d="M16.002,7.707C9.993,7.707,4.003,11.706,0.927,16c3.076,4.318,9.063,8.293,15.075,8.293
		c6.01,0,12.609-3.975,15.07-8.28C28.611,11.706,22.012,7.707,16.002,7.707z M16,22.217c-3.434,0-6.217-2.783-6.217-6.217
		S12.566,9.783,16,9.783c3.435,0,6.218,2.784,6.218,6.217S19.434,22.217,16,22.217z"/>
	<path fill="#FFFFFF" d="M19.821,13.765c0,0.817-0.662,1.479-1.479,1.479s-1.478-0.661-1.479-1.479c0-0.817,0.661-1.479,1.479-1.479
		c0.067,0,0.131,0.012,0.196,0.021c-0.723-0.497-1.597-0.79-2.539-0.79c-2.477,0-4.484,2.008-4.484,4.484s2.008,4.484,4.484,4.484
		s4.484-2.008,4.484-4.484c0-0.866-0.25-1.672-0.676-2.358C19.812,13.684,19.821,13.723,19.821,13.765z"/>
</g>
</svg>
