<?xml version="1.0" encoding="utf-8"?>
<!-- Generator: Adobe Illustrator 16.2.1, SVG Export Plug-In . SVG Version: 6.00 Build 0)  -->
<!DOCTYPE svg PUBLIC "-//W3C//DTD SVG 1.1//EN" "http://www.w3.org/Graphics/SVG/1.1/DTD/svg11.dtd">
<svg version="1.1" id="Layer_1" xmlns="http://www.w3.org/2000/svg" xmlns:xlink="http://www.w3.org/1999/xlink" x="0px" y="0px"
	 width="100px" height="100px" viewBox="0 0 100 100" enable-background="new 0 0 100 100" xml:space="preserve">
<g id="Your_Icon">
	<path fill="#FFFFFF" d="M69.502,78.115L57.846,66.684c-4.389,2.605-9.508,4.106-14.974,4.106c-5.465,0-10.586-1.501-14.975-4.108
		L16.105,78.247c-1.658,1.627-1.814,4.244-0.363,6.058c1.454,1.812,4.042,2.23,5.991,0.967c2.899-1.879,12.226-6.758,20.457-6.758
		c11.184,0,21.719,6.694,21.826,6.762C64.771,85.764,65.623,86,66.467,86c0.041,0,0.08-0.001,0.123-0.001
		c2.445-0.062,4.41-2.062,4.41-4.522C71,80.143,70.422,78.943,69.502,78.115z"/>
	<circle fill="#FFFFFF" cx="42.872" cy="41.373" r="7.599"/>
	<path fill="#FFFFFF" d="M42.872,14.985C28.268,14.985,16.364,26,15.793,41h16.203c0.548-6,5.216-9.843,10.876-9.843
		C48.531,31.157,53.2,35,53.747,41h16.205C69.381,26,57.475,14.985,42.872,14.985z M42.871,24.432c-1.469,0-2.66-1.192-2.66-2.662
		s1.191-2.662,2.66-2.662c1.472,0,2.663,1.192,2.663,2.662S44.342,24.432,42.871,24.432z"/>
	<path fill="#FFFFFF" d="M42.872,52.305c-5.66,0-10.328-4.326-10.876-9.844H15.793c0.572,14.464,12.475,26.016,27.079,26.016
		c14.603,0,26.509-11.552,27.08-26.016H53.746C53.199,47.979,48.531,52.305,42.872,52.305z"/>
</g>
</svg>
