<?xml version="1.0" encoding="utf-8"?>
<!-- Generator: Adobe Illustrator 16.0.0, SVG Export Plug-In . SVG Version: 6.00 Build 0)  -->
<!DOCTYPE svg PUBLIC "-//W3C//DTD SVG 1.1//EN" "http://www.w3.org/Graphics/SVG/1.1/DTD/svg11.dtd">
<svg version="1.1" id="Layer_1" xmlns="http://www.w3.org/2000/svg" xmlns:xlink="http://www.w3.org/1999/xlink" x="0px" y="0px"
	 width="32px" height="32px" viewBox="0 0 32 32" enable-background="new 0 0 32 32" xml:space="preserve">
<path fill="#FFFFFF" d="M21.522,22.395c-0.577,0.244-1.239-0.027-1.482-0.604s0.028-1.238,0.604-1.48
	c0.271-0.117,0.54-0.264,0.802-0.439c0.252-0.17,0.489-0.367,0.707-0.586c0.22-0.221,0.417-0.457,0.586-0.709
	c0.176-0.26,0.324-0.529,0.438-0.801c0.123-0.289,0.217-0.592,0.28-0.904c0.06-0.292,0.09-0.609,0.09-0.951
	c0-0.341-0.031-0.658-0.09-0.95c-0.063-0.312-0.157-0.615-0.28-0.905c-0.114-0.271-0.263-0.541-0.438-0.8
	c-0.17-0.252-0.366-0.489-0.586-0.709c-0.436-0.435-0.947-0.786-1.509-1.023c-0.575-0.242-0.847-0.906-0.604-1.481
	c0.243-0.577,0.906-0.847,1.482-0.604c0.849,0.359,1.606,0.873,2.237,1.504c0.317,0.316,0.605,0.666,0.86,1.044
	c0.245,0.364,0.461,0.763,0.643,1.192c0.18,0.425,0.319,0.873,0.414,1.339c0.094,0.465,0.144,0.932,0.144,1.394
	c0,0.462-0.05,0.93-0.144,1.396c-0.095,0.467-0.234,0.914-0.414,1.338c-0.182,0.43-0.397,0.83-0.643,1.193
	c-0.255,0.379-0.543,0.729-0.86,1.045c-0.316,0.316-0.668,0.605-1.044,0.861C22.351,21.998,21.952,22.213,21.522,22.395z"/>
<path fill="#FFFFFF" d="M23.581,26.225c-0.576,0.242-1.24-0.027-1.483-0.604c-0.241-0.576,0.028-1.238,0.605-1.482
	c0.519-0.219,1.022-0.494,1.504-0.818c0.474-0.32,0.919-0.688,1.327-1.096s0.775-0.854,1.096-1.328
	c0.323-0.48,0.599-0.984,0.818-1.504c0.23-0.541,0.406-1.107,0.525-1.695c0.113-0.559,0.172-1.153,0.172-1.777
	s-0.06-1.219-0.172-1.778c-0.118-0.585-0.295-1.153-0.525-1.696c-0.22-0.518-0.495-1.022-0.818-1.503
	c-0.32-0.474-0.688-0.918-1.096-1.327s-0.854-0.775-1.327-1.095c-0.481-0.325-0.985-0.6-1.504-0.82
	c-0.577-0.242-0.847-0.906-0.605-1.482c0.243-0.575,0.908-0.846,1.483-0.603c0.677,0.287,1.312,0.63,1.895,1.024
	c0.602,0.405,1.159,0.864,1.664,1.369c0.505,0.506,0.964,1.063,1.371,1.665c0.393,0.584,0.737,1.218,1.022,1.896
	c0.288,0.676,0.509,1.389,0.658,2.129c0.147,0.734,0.226,1.477,0.226,2.222c0,0.746-0.078,1.49-0.226,2.223
	c-0.149,0.74-0.37,1.453-0.658,2.129c-0.285,0.678-0.63,1.311-1.022,1.895c-0.406,0.602-0.866,1.16-1.371,1.666
	c-0.505,0.504-1.063,0.963-1.664,1.369C24.893,25.596,24.258,25.938,23.581,26.225z"/>
<path fill="#FFFFFF" d="M14.73,5.254c-2.263,1.702-4.524,3.406-6.787,5.108H3.538c-1.075,0-1.955,0.879-1.955,1.955v7.366
	c0,1.074,0.88,1.955,1.955,1.955h4.405c2.262,1.701,4.524,3.404,6.786,5.107c1.031,0.775,2.226,0.652,2.226-0.693
	c0-6.701,0-13.403,0-20.104C16.955,4.602,15.76,4.477,14.73,5.254z"/>
</svg>
