<?xml version="1.0" encoding="utf-8"?>
<!-- Generator: Adobe Illustrator 16.0.0, SVG Export Plug-In . SVG Version: 6.00 Build 0)  -->
<!DOCTYPE svg PUBLIC "-//W3C//DTD SVG 1.1//EN" "http://www.w3.org/Graphics/SVG/1.1/DTD/svg11.dtd">
<svg version="1.1" id="Layer_1" xmlns="http://www.w3.org/2000/svg" xmlns:xlink="http://www.w3.org/1999/xlink" x="0px" y="0px"
	 width="32px" height="32px" viewBox="0 0 32 32" enable-background="new 0 0 32 32" xml:space="preserve">
<g id="Your_Icon">
	<path fill="#FFFFFF" d="M0.397,21.289v1.742c0,0.5,0.407,0.908,0.908,0.908h28.332c0.502,0,0.908-0.406,0.908-0.908v-1.742H0.397z"
		/>
	<path fill="#FFFFFF" d="M29.638,2.986H1.306c-0.501,0-0.908,0.407-0.908,0.909v17.132h30.148V3.895
		C30.546,3.393,30.141,2.986,29.638,2.986z M29.292,19.924H1.602V4.146h27.69V19.924z"/>
	<path fill="#FFFFFF" d="M19.592,26.607c-0.553-0.408-0.611-1.02-0.611-1.02l-0.207-1.322h-6.603l-0.208,1.322
		c0,0-0.058,0.611-0.61,1.02c-0.551,0.406-0.987,0.754-0.551,0.812c0.419,0.057,4.379,0.004,4.671,0
		c0.292,0.004,4.251,0.057,4.671,0C20.579,27.361,20.144,27.014,19.592,26.607z"/>
	<polygon fill="#FFFFFF" points="23.738,28.768 6.789,28.768 7.697,27.635 22.83,27.635 	"/>
	<rect x="6.789" y="28.768" fill="#FFFFFF" width="16.949" height="0.244"/>
	<path fill="#FFFFFF" d="M28.815,27.379c0,0-1.242-0.014-2.154,0.252c0.216-0.02,0.454-0.002,0.705,0.084
		c0.247,0.088,0.488,0.227,0.742,0.375c0.46,0.27,0.996,0.58,1.79,0.699c1.186-0.014,1.693-0.127,1.703-0.342
		C31.615,28.156,31.19,27.422,28.815,27.379z M27.328,27.824c-0.569-0.199-1.087-0.006-1.376,0.15
		c-0.058,0.045-0.105,0.098-0.144,0.152c0,0,0.177,0.562,2.509,0.641c0.388,0.012,0.735,0.02,1.048,0.023
		c-0.54-0.154-0.95-0.393-1.313-0.604C27.802,28.045,27.566,27.906,27.328,27.824z"/>
	<path fill="#FFFFFF" d="M30.064,28.887c-0.001,0-0.001,0.002-0.001,0.002c-0.027,0-0.064,0-0.106,0.002c-0.02,0-0.038,0-0.059,0
		c-0.001,0-0.001,0-0.002,0c-0.164,0-0.383,0-0.535,0c0.002,0,0.003,0,0.004,0c-0.05,0-0.102,0-0.153,0
		c-0.018-0.002-0.028-0.002-0.028-0.002l0,0c-0.265-0.004-0.552-0.012-0.867-0.021c-0.874-0.029-1.446-0.125-1.818-0.238v0.139
		l2.815,0.246c0,0,1.202-0.033,1.569-0.123V28.84C30.664,28.861,30.394,28.879,30.064,28.887z"/>
</g>
</svg>
