<?xml version="1.0" encoding="utf-8"?>
<!-- Generator: Adobe Illustrator 16.2.1, SVG Export Plug-In . SVG Version: 6.00 Build 0)  -->
<!DOCTYPE svg PUBLIC "-//W3C//DTD SVG 1.1//EN" "http://www.w3.org/Graphics/SVG/1.1/DTD/svg11.dtd">
<svg version="1.1" id="Layer_1" xmlns="http://www.w3.org/2000/svg" xmlns:xlink="http://www.w3.org/1999/xlink" x="0px" y="0px"
	 width="32px" height="32px" viewBox="0 0 32 32" enable-background="new 0 0 32 32" xml:space="preserve">
<circle fill="none" stroke="#CCCCCC" stroke-miterlimit="10" cx="16.333" cy="15.5" r="14"/>
<path fill="#CCCCCC" d="M7.696,15.672c-0.003-2.421,1.001-4.252,1.971-5.415l0,0c0.975-1.172,1.922-1.737,2.007-1.79l0,0
	c0.634-0.375,1.448-0.16,1.818,0.48l0,0c0.37,0.638,0.16,1.457-0.468,1.833l0,0v0c0,0,0,0-0.002,0.001l0,0
	c-0.002,0.001-0.004,0.002-0.008,0.005l0,0c-0.013,0.008-0.037,0.023-0.069,0.046l0,0c-0.066,0.044-0.168,0.118-0.295,0.218l0,0
	c-0.254,0.202-0.603,0.516-0.946,0.93l0,0c-0.69,0.84-1.348,2.031-1.351,3.689l0,0c0,1.672,0.667,3.175,1.751,4.274l0,0
	c1.087,1.096,2.574,1.771,4.228,1.771l0,0c1.653,0,3.141-0.675,4.228-1.771l0,0c1.085-1.099,1.751-2.602,1.752-4.274l0,0
	c-0.003-1.607-0.62-2.772-1.286-3.61l0,0c-0.635-0.793-1.312-1.236-1.381-1.277l0,0c0,0-0.001-0.001-0.002-0.001l0,0
	c-0.001,0-0.001-0.001-0.002-0.001l0,0c-0.001,0-0.002,0-0.002,0l0,0l0,0c-0.627-0.377-0.837-1.196-0.467-1.834l0,0
	c0.37-0.64,1.185-0.855,1.817-0.48l0,0c0.086,0.052,1.033,0.617,2.009,1.79l0,0c0.971,1.163,1.974,2.994,1.971,5.415l0,0
	c-0.001,4.822-3.867,8.73-8.637,8.732l0,0C11.564,24.401,7.697,20.493,7.696,15.672L7.696,15.672z"/>
<path fill="#CCCCCC" d="M15.004,15v-4.03V6.94c0-0.742,0.595-1.343,1.329-1.343l0,0c0.733,0,1.328,0.602,1.328,1.343l0,0v4.03V15
	h0.001c0,0.741-0.596,1.343-1.329,1.343l0,0C15.599,16.343,15.004,15.741,15.004,15L15.004,15z"/>
</svg>
