<?xml version="1.0" encoding="utf-8"?>
<!-- Generator: Adobe Illustrator 16.2.1, SVG Export Plug-In . SVG Version: 6.00 Build 0)  -->
<!DOCTYPE svg PUBLIC "-//W3C//DTD SVG 1.1//EN" "http://www.w3.org/Graphics/SVG/1.1/DTD/svg11.dtd">
<svg version="1.1" id="Layer_1" xmlns="http://www.w3.org/2000/svg" xmlns:xlink="http://www.w3.org/1999/xlink" x="0px" y="0px"
	 width="100px" height="100px" viewBox="0 0 100 100" enable-background="new 0 0 100 100" xml:space="preserve">
<path fill="#FFFFFF" stroke="#FFFFFF" stroke-width="3.2572" stroke-linecap="round" stroke-miterlimit="10" d="M20.121,34.738"/>
<path fill="#FFFFFF" stroke="#FFFFFF" stroke-width="3.2572" stroke-linecap="round" stroke-miterlimit="10" d="M13.279,34.738"/>
<path fill="#FFFFFF" d="M98.627,34.708h0.562v-6.636c0-1.602-1.311-2.912-2.912-2.912H83.316c-4.691-6.039-12.02-9.93-20.258-9.93
	s-15.565,3.891-20.258,9.93H3.723c-1.602,0-2.912,1.311-2.912,2.912v6.636h26.344c1.093,0,1.978,0.886,1.978,1.978
	c0,1.092-0.885,1.978-1.978,1.978H0.811v7.083h26.344c1.093,0,1.978,0.886,1.978,1.978c0,1.092-0.885,1.978-1.978,1.978H0.811v7.085
	h26.344c1.093,0,1.978,0.886,1.978,1.979c0,1.092-0.885,1.978-1.978,1.978H0.811v6.638c0,1.602,1.311,2.912,2.912,2.912h92.556
	c1.602,0,2.912-1.311,2.912-2.912v-6.638h-0.563c-1.094,0-1.979-0.886-1.979-1.978c0-1.094,0.886-1.979,1.979-1.979h0.563v-7.085
	h-0.563c-1.094,0-1.979-0.886-1.979-1.978c0-1.092,0.886-1.978,1.979-1.978h0.563v-7.083h-0.563c-1.094,0-1.979-0.886-1.979-1.978
	C96.648,35.594,97.533,34.708,98.627,34.708z M63.061,56.833c-8.814,0-15.959-7.145-15.959-15.958
	c0-8.815,7.145-15.959,15.959-15.959c8.812,0,15.957,7.144,15.957,15.959C79.018,49.688,71.873,56.833,63.061,56.833z"/>
<g>
	<path fill="#FFFFFF" d="M63.587,33.633c2.612,0,4.896,1.392,6.17,3.468l4.996-3.055c-2.302-3.759-6.437-6.274-11.166-6.274V33.633z
		"/>
</g>
<rect x="8.626" y="74.355" fill="#FFFFFF" width="82.749" height="5.857"/>
</svg>
