<?xml version="1.0" encoding="utf-8"?>
<!-- Generator: Adobe Illustrator 16.0.0, SVG Export Plug-In . SVG Version: 6.00 Build 0)  -->
<!DOCTYPE svg PUBLIC "-//W3C//DTD SVG 1.1//EN" "http://www.w3.org/Graphics/SVG/1.1/DTD/svg11.dtd">
<svg version="1.1" id="Layer_1" xmlns="http://www.w3.org/2000/svg" xmlns:xlink="http://www.w3.org/1999/xlink" x="0px" y="0px"
	 width="64px" height="64px" viewBox="0 0 64 64" enable-background="new 0 0 64 64" xml:space="preserve">
<g>
	<path fill="#FFFFFF" d="M52.011,54.547H11.107c-5.592,0-10.141-4.55-10.141-10.142v-22.31c0-5.592,4.549-10.142,10.141-10.142
		h40.903c5.592,0,10.141,4.55,10.141,10.142v22.312C62.151,49.997,57.603,54.547,52.011,54.547z M11.107,18.038
		c-2.237,0-4.056,1.819-4.056,4.055v22.312c0,2.237,1.82,4.057,4.056,4.057h40.903c2.237,0,4.056-1.819,4.056-4.057v-22.31
		c0-2.238-1.818-4.056-4.056-4.056L11.107,18.038L11.107,18.038z"/>
</g>
<path fill="#FFFFFF" d="M26.319,23.891c0-0.829,0.554-1.116,1.232-0.636l12.841,9.121c0.676,0.482,0.676,1.268,0,1.749L27.55,43.244
	c-0.678,0.479-1.231,0.193-1.231-0.636L26.319,23.891L26.319,23.891z"/>
</svg>
