<?xml version="1.0" encoding="utf-8"?>
<!-- Generator: Adobe Illustrator 16.0.0, SVG Export Plug-In . SVG Version: 6.00 Build 0)  -->
<!DOCTYPE svg PUBLIC "-//W3C//DTD SVG 1.1//EN" "http://www.w3.org/Graphics/SVG/1.1/DTD/svg11.dtd">
<svg version="1.1" id="Layer_1" xmlns="http://www.w3.org/2000/svg" xmlns:xlink="http://www.w3.org/1999/xlink" x="0px" y="0px"
	 width="32px" height="32px" viewBox="0 0 32 32" enable-background="new 0 0 32 32" xml:space="preserve">
<circle fill="none" stroke="#CCCCCC" stroke-miterlimit="10" cx="16.333" cy="15.5" r="14"/>
<path fill="#CCCCCC" d="M25.5,16.935v-3.057l-2.091-0.621c-0.138-0.45-0.3-0.883-0.518-1.292l1.073-1.944L21.809,7.86l-1.941,1.065
	c-0.409-0.218-0.841-0.362-1.291-0.5l-0.62-2.091h-3.057l-0.621,2.091c-0.451,0.138-0.883,0.3-1.293,0.518l-1.944-1.074
	l-2.161,2.156l1.065,1.942c-0.218,0.409-0.456,0.841-0.594,1.291l-2.185,0.62v3.057l2.185,0.621
	c0.138,0.451,0.347,0.884,0.565,1.293l-1.051,1.943l2.168,2.161l1.948-1.064c0.409,0.218,0.843,0.455,1.294,0.594l0.623,2.184h3.057
	l0.621-2.185c0.451-0.138,0.883-0.347,1.292-0.564l1.944,1.051l2.161-2.169l-1.065-1.947c0.218-0.409,0.362-0.844,0.5-1.294
	L25.5,16.935z M16.334,19.716c-2.328,0-4.215-1.888-4.215-4.216s1.887-4.216,4.215-4.216s4.216,1.888,4.216,4.216
	S18.662,19.716,16.334,19.716z"/>
</svg>
