<?xml version="1.0" encoding="utf-8"?>
<!-- Generator: Adobe Illustrator 16.0.0, SVG Export Plug-In . SVG Version: 6.00 Build 0)  -->
<!DOCTYPE svg PUBLIC "-//W3C//DTD SVG 1.1//EN" "http://www.w3.org/Graphics/SVG/1.1/DTD/svg11.dtd">
<svg version="1.1" id="Layer_1" xmlns="http://www.w3.org/2000/svg" xmlns:xlink="http://www.w3.org/1999/xlink" x="0px" y="0px"
	 width="32px" height="32px" viewBox="0 0 32 32" enable-background="new 0 0 32 32" xml:space="preserve">
<path fill="#FFFFFF" d="M29.044,7.37H17.287l4.816-4.816c0.165-0.165,0.267-0.393,0.267-0.644c0-0.502-0.407-0.91-0.91-0.91
	c-0.251,0-0.479,0.102-0.645,0.268L16,6.083l-4.816-4.816C11.02,1.102,10.792,1,10.54,1c-0.502,0-0.91,0.407-0.91,0.91
	c0,0.251,0.102,0.479,0.267,0.644l4.817,4.816H2.957c-1.173,0-2.124,0.937-2.124,2.093V26.51c0,1.156,0.951,2.094,2.124,2.094
	h26.087c1.173,0,2.123-0.938,2.123-2.093V9.463C31.167,8.307,30.217,7.37,29.044,7.37z M23.887,22.537c0,2.01-1.63,3.64-3.64,3.64
	H6.597c-2.011,0-3.64-1.63-3.64-3.64v-9.101c0-2.01,1.629-3.64,3.64-3.64h13.65c2.01,0,3.64,1.63,3.64,3.64V22.537z M27.527,18.29
	c-1.005,0-1.82-0.814-1.82-1.82c0-1.005,0.815-1.819,1.82-1.819s1.82,0.814,1.82,1.819C29.348,17.476,28.532,18.29,27.527,18.29z
	 M27.527,13.437c-1.005,0-1.82-0.814-1.82-1.82c0-1.005,0.815-1.819,1.82-1.819s1.82,0.814,1.82,1.819
	C29.348,12.622,28.532,13.437,27.527,13.437z"/>
</svg>
