<?xml version="1.0" encoding="utf-8"?>
<!-- Generator: Adobe Illustrator 16.0.0, SVG Export Plug-In . SVG Version: 6.00 Build 0)  -->
<!DOCTYPE svg PUBLIC "-//W3C//DTD SVG 1.1//EN" "http://www.w3.org/Graphics/SVG/1.1/DTD/svg11.dtd">
<svg version="1.1" id="Layer_1" xmlns="http://www.w3.org/2000/svg" xmlns:xlink="http://www.w3.org/1999/xlink" x="0px" y="0px"
	 width="32px" height="32px" viewBox="0 0 32 32" enable-background="new 0 0 32 32" xml:space="preserve">
<g id="XMLID_5_">
	<g>
		<g id="XMLID_1_">
			<g>
				<path fill="#FFFFFF" d="M19.623,10.723c0,1.598-0.951,3.514-2.127,4.495c0.225,0.866,1.408,1.184,3.811,1.839
					c0.154,0.045,0.314,0.088,0.48,0.133c3.033,0.828,3.762,2.947,3.754,4.328H6.446c-0.003-0.754,0.215-1.734,0.91-2.6
					c0.577-0.715,1.476-1.355,2.845-1.729c0.115-0.033,0.229-0.062,0.337-0.092c1.731-0.477,2.849-0.77,3.451-1.2
					c0.24-0.173,0.399-0.369,0.481-0.606h0.144c-0.04-0.033-0.077-0.062-0.114-0.1c-1.125-1.018-1.983-2.993-1.983-4.591
					c0-2.26,1.85-4.091,3.599-4.091C17.865,6.509,19.623,8.462,19.623,10.723z"/>
				<path fill="#FFFFFF" d="M31.461,4.489v18.964c0,0.791-0.641,1.43-1.432,1.43h-9.377v2.416c0,0.16-0.027,0.307-0.07,0.449h4.275
					c0.545,0,0.984,0.439,0.984,0.982c0,0.545-0.439,0.984-0.984,0.984H7.145c-0.547,0-0.984-0.439-0.984-0.984
					c0-0.27,0.111-0.518,0.289-0.699c0.174-0.174,0.422-0.283,0.695-0.283h4.273c-0.044-0.143-0.07-0.289-0.07-0.449v-2.416H1.97
					c-0.792,0-1.432-0.639-1.432-1.43V4.489c0-0.792,0.64-1.432,1.432-1.432h28.06C30.82,3.058,31.461,3.698,31.461,4.489z
					 M29.719,18.033c0-0.1-0.004-0.207-0.02-0.318V4.845h-27.4v13.188v4.705h27.4v-4.705H29.719z"/>
				<path fill="#FFFFFF" d="M29.699,17.715c0.016,0.111,0.02,0.219,0.02,0.318h-0.02V17.715z"/>
				<path fill="#FFFFFF" d="M20.559,15.447c1.633-0.443,2.42-0.625,2.564-1.177c-0.703-0.584-1.27-1.728-1.27-2.682
					c0-1.35,1.047-2.516,2.094-2.516c1.043,0,2.15,1.095,2.15,2.441c0,0.955-0.516,2.135-1.188,2.741
					c-0.02,0.022-0.041,0.041-0.066,0.06h0.084c0.178,0.514,0.965,0.695,2.549,1.132c1.592,0.44,2.123,1.465,2.223,2.268v0.318
					h-4.436c-0.453-0.566-1.168-1.074-2.252-1.369c-0.574-0.16-1.068-0.293-1.488-0.415c-0.701-0.203-1.197-0.385-1.516-0.61
					C20.174,15.565,20.359,15.502,20.559,15.447z"/>
				<path fill="#FFFFFF" d="M14.614,15.292H14.47c0.011-0.033,0.021-0.062,0.029-0.1C14.537,15.229,14.574,15.258,14.614,15.292z"/>
				<path fill="#FFFFFF" d="M7.889,14.226H7.781c0.008-0.022,0.015-0.048,0.022-0.074C7.83,14.178,7.859,14.204,7.889,14.226z"/>
				<path fill="#FFFFFF" d="M7.889,14.226c-0.03-0.022-0.059-0.048-0.085-0.074c-0.007,0.026-0.015,0.052-0.022,0.074H7.889z
					 M8.943,14.27c0.145,0.552,0.932,0.733,2.56,1.177c0.2,0.056,0.385,0.118,0.551,0.192c-0.348,0.248-0.914,0.44-1.731,0.673
					c-0.37,0.108-0.792,0.219-1.269,0.353c-1.088,0.295-1.802,0.802-2.257,1.369H2.343c-0.003-0.826,0.433-2.087,2.242-2.586
					c1.587-0.437,2.372-0.618,2.549-1.132h0.085c-0.022-0.019-0.044-0.037-0.067-0.06c-0.673-0.606-1.184-1.786-1.184-2.741
					c0-1.346,1.102-2.441,2.149-2.441c1.043,0,2.094,1.166,2.094,2.516C10.212,12.542,9.642,13.686,8.943,14.27z"/>
			</g>
		</g>
	</g>
</g>
</svg>
