<?xml version="1.0" encoding="utf-8"?>
<!-- Generator: Adobe Illustrator 16.2.1, SVG Export Plug-In . SVG Version: 6.00 Build 0)  -->
<!DOCTYPE svg PUBLIC "-//W3C//DTD SVG 1.1//EN" "http://www.w3.org/Graphics/SVG/1.1/DTD/svg11.dtd">
<svg version="1.1" id="Layer_1" xmlns="http://www.w3.org/2000/svg" xmlns:xlink="http://www.w3.org/1999/xlink" x="0px" y="0px"
	 width="100px" height="100px" viewBox="0 0 100 100" enable-background="new 0 0 100 100" xml:space="preserve">
<g>
	<g>
		<path fill="#FFFFFF" d="M49.79,38.6c-6.17,0-11.2,5.02-11.2,11.2c0,6.171,5.03,11.2,11.2,11.2c6.181,0,11.2-5.029,11.2-11.2
			C60.99,43.62,55.971,38.6,49.79,38.6z M49.79,58.57c-4.84,0-8.77-3.94-8.77-8.771c0-4.84,3.93-8.78,8.77-8.78s8.78,3.94,8.78,8.78
			C58.57,54.63,54.63,58.57,49.79,58.57z"/>
	</g>
</g>
<g>
	<g>
		<path fill="#FFFFFF" d="M49.79,29.48c-11.2,0-20.31,9.11-20.31,20.32c0,11.2,9.11,20.312,20.31,20.312S70.109,61,70.109,49.8
			C70.109,38.59,60.99,29.48,49.79,29.48z M49.79,62.3c-6.89,0-12.5-5.608-12.5-12.5c0-6.9,5.61-12.5,12.5-12.5
			c6.89,0,12.5,5.6,12.5,12.5C62.29,56.689,56.68,62.3,49.79,62.3z"/>
	</g>
</g>
<path fill="#FFFFFF" d="M49.796,0C22.291,0,0,22.302,0,49.796s22.291,49.796,49.796,49.796c27.495,0,49.786-22.302,49.786-49.796
	S77.291,0,49.796,0z M49.796,71.48c-11.984,0-21.686-9.711-21.686-21.685c0-11.973,9.702-21.686,21.686-21.686
	c11.974,0,21.685,9.713,21.685,21.686C71.48,61.77,61.77,71.48,49.796,71.48z"/>
</svg>
