<?xml version="1.0" encoding="utf-8"?>
<!-- Generator: Adobe Illustrator 16.0.0, SVG Export Plug-In . SVG Version: 6.00 Build 0)  -->
<!DOCTYPE svg PUBLIC "-//W3C//DTD SVG 1.1//EN" "http://www.w3.org/Graphics/SVG/1.1/DTD/svg11.dtd">
<svg version="1.1" id="Layer_1" xmlns="http://www.w3.org/2000/svg" xmlns:xlink="http://www.w3.org/1999/xlink" x="0px" y="0px"
	 width="32px" height="32px" viewBox="0 0 32 32" enable-background="new 0 0 32 32" xml:space="preserve">
<circle fill="none" stroke="#CCCCCC" stroke-miterlimit="10" cx="16.333" cy="15.5" r="14"/>
<path id="volume_3" fill="#CCCCCC" d="M7.788,12.507v6.103h3.475l5.201,4.268l0.003-14.641l-5.202,4.271H7.788L7.788,12.507z
	 M18.459,11.805c-0.305-0.301-0.789-0.301-1.094,0.002c-0.301,0.302-0.301,0.791,0.001,1.094v-0.001
	c0.668,0.668,1.08,1.584,1.08,2.602c0,1.015-0.411,1.929-1.079,2.595c-0.304,0.304-0.304,0.79-0.001,1.098
	c0.149,0.15,0.348,0.227,0.546,0.227c0.199,0,0.402-0.076,0.548-0.227c0.944-0.943,1.53-2.254,1.53-3.691
	C19.991,14.06,19.403,12.747,18.459,11.805z M20.233,10.032c-0.305-0.302-0.79-0.302-1.093,0s-0.303,0.792,0,1.093
	c1.121,1.121,1.818,2.664,1.818,4.375c0,1.71-0.691,3.252-1.818,4.375c-0.306,0.3-0.306,0.789,0,1.092
	c0.146,0.149,0.349,0.228,0.549,0.228c0.198,0,0.401-0.078,0.546-0.228c1.4-1.4,2.271-3.335,2.27-5.467
	C22.501,13.368,21.633,11.429,20.233,10.032z M21.916,8.349c-0.306-0.302-0.79-0.301-1.091,0.001
	c-0.304,0.301-0.304,0.791,0.001,1.092h-0.001c1.553,1.552,2.509,3.688,2.509,6.058c0,2.367-0.956,4.505-2.508,6.057
	c-0.303,0.303-0.303,0.789,0.002,1.095c0.149,0.146,0.347,0.225,0.546,0.225c0.198,0,0.396-0.08,0.547-0.226
	c1.825-1.829,2.962-4.364,2.959-7.15C24.883,12.71,23.746,10.175,21.916,8.349z"/>
</svg>
