<?xml version="1.0" encoding="utf-8"?>
<!-- Generator: Adobe Illustrator 16.0.0, SVG Export Plug-In . SVG Version: 6.00 Build 0)  -->
<!DOCTYPE svg PUBLIC "-//W3C//DTD SVG 1.1//EN" "http://www.w3.org/Graphics/SVG/1.1/DTD/svg11.dtd">
<svg version="1.1" id="Layer_1" xmlns="http://www.w3.org/2000/svg" xmlns:xlink="http://www.w3.org/1999/xlink" x="0px" y="0px"
	 width="32px" height="32px" viewBox="0 0 32 32" enable-background="new 0 0 32 32" xml:space="preserve">
<path fill="#FFFFFF" d="M31.081,4.802v18.135c0,0.757-0.611,1.368-1.369,1.368h-8.969v2.311c0,0.153-0.024,0.294-0.067,0.429h4.09
	c0.521,0,0.941,0.421,0.941,0.94s-0.421,0.941-0.941,0.941H7.828c-0.524,0-0.941-0.421-0.941-0.941c0-0.258,0.106-0.495,0.276-0.669
	c0.166-0.165,0.403-0.271,0.665-0.271h4.086c-0.042-0.135-0.067-0.275-0.067-0.429v-2.311H2.878c-0.757,0-1.369-0.611-1.369-1.368
	V4.802c0-0.757,0.612-1.369,1.369-1.369h26.834C30.47,3.433,31.081,4.044,31.081,4.802z M29.415,17.754
	c0-0.096-0.004-0.199-0.018-0.305V5.141H3.193v12.613v4.499h26.205v-4.499H29.415z"/>
<path fill="#FFFFFF" d="M29.397,17.449c0.014,0.105,0.018,0.209,0.018,0.305h-0.018V17.449z"/>
<g>
	<path fill="#FFFFFF" d="M12.506,16.06c-0.356,0.354-0.356,0.933,0,1.289c0.355,0.356,0.934,0.356,1.29,0
		c1.377-1.377,3.62-1.378,4.998,0c0.178,0.178,0.411,0.268,0.645,0.268s0.468-0.09,0.645-0.268c0.356-0.356,0.356-0.935,0-1.289
		C17.994,13.97,14.595,13.97,12.506,16.06z"/>
	<path fill="#FFFFFF" d="M10.128,13.681c-0.356,0.356-0.356,0.934,0,1.29c0.178,0.179,0.412,0.267,0.645,0.267
		s0.467-0.088,0.645-0.267c2.689-2.688,7.063-2.688,9.754,0c0.355,0.356,0.934,0.356,1.29,0c0.355-0.356,0.355-0.933,0-1.29
		C19.062,10.281,13.528,10.281,10.128,13.681z"/>
	<path fill="#FFFFFF" d="M24.961,11.182c-4.778-4.778-12.554-4.778-17.331,0c-0.356,0.356-0.356,0.934,0,1.29
		c0.355,0.356,0.934,0.356,1.289,0c4.067-4.066,10.684-4.067,14.752,0c0.178,0.178,0.411,0.267,0.645,0.267s0.467-0.088,0.646-0.267
		C25.316,12.116,25.316,11.538,24.961,11.182z"/>
	<circle fill="#FFFFFF" cx="16.295" cy="19.194" r="0.912"/>
</g>
</svg>
