<?xml version="1.0" encoding="utf-8"?>
<!-- Generator: Adobe Illustrator 16.0.0, SVG Export Plug-In . SVG Version: 6.00 Build 0)  -->
<!DOCTYPE svg PUBLIC "-//W3C//DTD SVG 1.1//EN" "http://www.w3.org/Graphics/SVG/1.1/DTD/svg11.dtd">
<svg version="1.1" id="Layer_1" xmlns="http://www.w3.org/2000/svg" xmlns:xlink="http://www.w3.org/1999/xlink" x="0px" y="0px"
	 width="32px" height="32px" viewBox="0 0 32 32" enable-background="new 0 0 32 32" xml:space="preserve">
<g>
	<path fill="#FFFFFF" d="M9.455,19.812c-0.615,0.613-0.615,1.611,0,2.227c0.615,0.615,1.613,0.615,2.228,0
		c2.379-2.379,6.252-2.381,8.633,0c0.308,0.307,0.711,0.461,1.114,0.461c0.402,0,0.807-0.154,1.113-0.461
		c0.615-0.615,0.615-1.613,0-2.227C18.934,16.203,13.063,16.204,9.455,19.812z"/>
	<path fill="#FFFFFF" d="M5.348,15.704c-0.615,0.615-0.615,1.613,0,2.228c0.308,0.307,0.711,0.461,1.114,0.461
		s0.807-0.154,1.114-0.461c4.645-4.644,12.202-4.645,16.848,0c0.615,0.615,1.612,0.615,2.228,0s0.615-1.613,0-2.228
		C20.777,9.831,11.221,9.831,5.348,15.704z"/>
	<path fill="#FFFFFF" d="M30.967,11.388c-8.253-8.253-21.683-8.252-29.935,0c-0.615,0.615-0.615,1.613,0,2.228
		c0.616,0.616,1.613,0.616,2.228,0c7.024-7.023,18.454-7.024,25.479,0c0.308,0.308,0.711,0.461,1.114,0.461s0.807-0.154,1.114-0.462
		C31.582,13,31.582,12.003,30.967,11.388z"/>
	<circle fill="#FFFFFF" cx="15.999" cy="25.227" r="1.574"/>
</g>
</svg>
